<?xml version="1.0" encoding="utf-8"?>
<!-- Generator: Adobe Illustrator 16.0.3, SVG Export Plug-In . SVG Version: 6.00 Build 0)  -->
<!DOCTYPE svg PUBLIC "-//W3C//DTD SVG 1.1//EN" "http://www.w3.org/Graphics/SVG/1.1/DTD/svg11.dtd">
<svg version="1.1" id="Layer_1" xmlns="http://www.w3.org/2000/svg" xmlns:xlink="http://www.w3.org/1999/xlink" x="0px" y="0px"
	 width="293.985px" height="253.903px" viewBox="0 0 293.985 253.903" enable-background="new 0 0 293.985 253.903"
	 xml:space="preserve">
<g>
	<path fill="#00CC52" d="M69.276,139.702c0,0-20.273,7.425-30.159,14.53c-16.722,12.023-26.752,33.735-31.188,30.809
		c-5.333-3.532,12.844-31.043,25.357-38.571c22.837-13.736,36.919-11.828,36.919-11.828L69.276,139.702z"/>
	<path fill="#00CC52" d="M65.926,135.86c0,0-21.929-0.863-28.368,28.415c-2.137,9.769,9.471,40.581,15.184,37.746
		c5.444-2.711-8.1-26.595-6.386-35.414c4.169-21.467,22.13-26.019,22.13-26.019L65.926,135.86z"/>
	<path fill="#7DFF8E" d="M136.129,120.621c-58.688,3.104-82.769,34.1-82.769,34.1s-6.007-3.472-8.863-7.38
		c-3.131-4.29-4.243-7.406-4.243-7.406s26.95-12.27,63.397-42.472"/>
	<path fill="#00CC52" d="M222.937,139.702c0,0,20.274,7.425,30.16,14.53c16.722,12.023,26.752,33.735,31.187,30.809
		c5.333-3.532-12.844-31.043-25.357-38.571c-22.837-13.736-36.919-11.828-36.919-11.828L222.937,139.702z"/>
	<path fill="#00CC52" d="M160.615,41.919c13.335,11.991,26.113,18.06,26.113,38.286c0,21.883-21.799,39.618-43.679,39.618
		c-21.879,0-41.937-17.735-41.937-39.618c0-19.512,10.962-26.295,25.591-38.494c1.813-1.513,2.523-6.351-1.366-9.338
		c-8.748-6.724-33.664,23.563-33.664,47.832c0,27.09,24.286,49.053,51.375,49.053c27.09,0,53.116-21.963,53.116-49.053
		c0-25.008-25.869-53.814-34.284-47.64C158.549,35.01,158.861,40.341,160.615,41.919z"/>
	<path fill="#00CC52" d="M226.289,135.86c0,0,21.929-0.863,28.367,28.415c2.137,9.769-9.471,40.581-15.184,37.746
		c-5.445-2.711,8.1-26.595,6.385-35.414c-4.168-21.467-22.129-26.019-22.129-26.019L226.289,135.86z"/>
	<path fill="#7DFF8E" d="M156.084,120.621c58.688,3.104,82.769,34.1,82.769,34.1s6.007-3.472,8.863-7.38
		c3.132-4.29,4.244-7.406,4.244-7.406s-26.951-12.27-63.397-42.472"/>
	<path fill="#7DFF8E" d="M216.906,160.009c0,51.857-32.259,93.894-72.053,93.894S72.8,211.867,72.8,160.009
		c0-51.853,32.259-93.888,72.053-93.888C184.644,66.122,216.906,108.157,216.906,160.009z"/>
	<path fill="#FFFFFF" d="M177.044,116.746c0,21.666-14.879,39.225-33.231,39.225c-18.354,0-33.232-17.559-33.232-39.225
		c0-21.667,14.879-39.224,33.232-39.224C162.166,77.522,177.044,95.079,177.044,116.746z"/>
	<path d="M151.388,126.662c0,5.475-3.391,9.922-7.575,9.922c-4.185,0-7.576-4.447-7.576-9.922c0-5.476,3.391-9.92,7.576-9.92
		C147.998,116.742,151.388,121.186,151.388,126.662z"/>
	<path fill="#00CC52" d="M58.505,253.903c0,0,26.271-19.298,36.709-20.963c11.457-1.827,33.855,8.981,45.451,9.323
		c15.302,0.452,45.517-11.315,60.604-8.743c10.856,1.851,39.042,20.383,39.042,20.383H58.505z"/>
	<path fill="#7DFF8E" d="M166.955,31.169c0,13.047-10.582,23.629-23.63,23.629c-13.047,0-23.63-10.582-23.63-23.629
		c0-13.048,10.583-23.631,23.63-23.631C156.373,7.539,166.955,18.122,166.955,31.169z"/>
</g>
</svg>
