<?xml version="1.0" encoding="utf-8"?>
<!-- Generator: Adobe Illustrator 16.0.3, SVG Export Plug-In . SVG Version: 6.00 Build 0)  -->
<!DOCTYPE svg PUBLIC "-//W3C//DTD SVG 1.1//EN" "http://www.w3.org/Graphics/SVG/1.1/DTD/svg11.dtd">
<svg version="1.1" id="Layer_1" xmlns="http://www.w3.org/2000/svg" xmlns:xlink="http://www.w3.org/1999/xlink" x="0px" y="0px"
	 width="294.406px" height="329.294px" viewBox="0 0 294.406 329.294" enable-background="new 0 0 294.406 329.294"
	 xml:space="preserve">
<g>
	<path fill="#00CC52" d="M68.985,212.61c0,0-20.714,7.585-30.814,14.844c-17.086,12.286-27.336,34.472-31.866,31.48
		c-5.449-3.61,13.123-31.719,25.907-39.411c23.335-14.037,37.725-12.086,37.725-12.086L68.985,212.61z"/>
	<path fill="#00CC52" d="M65.563,208.685c0,0-22.406-0.884-28.987,29.031c-2.184,9.981,9.678,41.464,15.516,38.567
		c5.563-2.77-8.278-27.172-6.525-36.184c4.259-21.934,22.609-26.584,22.609-26.584L65.563,208.685z"/>
	<path fill="#7DFF8E" d="M137.293,193.113c-59.966,3.17-84.57,34.842-84.57,34.842s-6.136-3.548-9.057-7.541
		c-3.2-4.385-4.335-7.568-4.335-7.568s27.537-12.537,64.775-43.395"/>
	<path fill="#00CC52" d="M225.99,212.61c0,0,20.715,7.585,30.814,14.844c17.086,12.286,27.336,34.472,31.865,31.48
		c5.449-3.61-13.123-31.719-25.906-39.411c-23.336-14.037-37.723-12.086-37.723-12.086L225.99,212.61z"/>
	<path fill="#00CC52" d="M234.814,115.848c5.174,17.579,13.043,29.705,2.203,47.304c-11.723,19.037-40.193,22.785-59.229,11.064
		c-19.031-11.723-26.984-37.898-15.26-56.936c10.453-16.974,23.625-17.008,42.891-19.78c2.387-0.345,5.598-4.176,3.814-8.859
		c-4.01-10.535-41.912,2.467-54.916,23.582c-14.514,23.567-5.15,55.688,18.42,70.204c23.566,14.511,57.979,9.348,72.49-14.223
		c13.4-21.755,6.324-60.676-4.307-59.814C236.714,108.728,234.13,113.534,234.814,115.848z"/>
	<path fill="#00CC52" d="M75.427,101.841c18.289-1.104,31.872-6.05,46.589,8.458c15.925,15.693,13.197,44.282-2.496,60.202
		c-15.69,15.919-42.985,17.797-58.905,2.106c-14.201-13.995-11.278-26.841-9.663-46.235c0.203-2.405-2.811-6.39-7.774-5.703
		c-11.166,1.544-6.996,41.395,10.666,58.803c19.712,19.432,53.114,17.511,72.543-2.205c19.43-19.715,22.115-54.407,2.399-73.835
		c-18.2-17.938-57.714-19.771-59.258-9.218C68.917,98.393,73.02,101.985,75.427,101.841z"/>
	<path fill="#00CC52" d="M164.291,23.076c25.18,18.911,48.467,27.549,51.588,62.928c3.383,38.275-32.014,72.664-70.277,76.044
		c-38.258,3.378-76.086-24.542-79.469-62.813c-3.015-34.129,15.112-47.691,38.815-71.287c2.941-2.924,3.433-11.497-3.831-16.112
		C84.778,1.422,45.88,58.243,49.629,100.688c4.176,47.382,50.052,82.042,97.428,77.856c47.382-4.184,89.515-46.621,85.327-93.994
		c-3.869-43.745-53.555-90.126-67.326-78.025C159.609,11.314,160.98,20.586,164.291,23.076z"/>
	<path fill="#00CC52" d="M229.416,208.685c0,0,22.402-0.884,28.982,29.031c2.184,9.981-9.678,41.464-15.516,38.567
		c-5.563-2.77,8.279-27.172,6.525-36.184c-4.26-21.934-22.609-26.584-22.609-26.584L229.416,208.685z"/>
	<path fill="#7DFF8E" d="M157.683,193.113c59.963,3.17,84.568,34.842,84.568,34.842s6.139-3.548,9.057-7.541
		c3.199-4.385,4.334-7.568,4.334-7.568s-27.535-12.537-64.773-43.395"/>
	<path fill="#7DFF8E" d="M227.263,223.674c0,58.333-36.293,105.62-81.057,105.62c-44.767,0-81.053-47.287-81.053-105.62
		c0-58.33,36.286-105.621,81.053-105.621C190.966,118.053,227.263,165.344,227.263,223.674z"/>
	<path fill="#FFFFFF" d="M185.568,181.514c0,26.357-18.098,47.717-40.426,47.717c-22.326,0-40.425-21.359-40.425-47.717
		s18.099-47.716,40.425-47.716C167.47,133.798,185.568,155.156,185.568,181.514z"/>
	<path d="M154.701,196.902c0,6.911-4.277,12.52-9.559,12.52c-5.279,0-9.558-5.608-9.558-12.52c0-6.908,4.278-12.516,9.558-12.516
		C150.423,184.387,154.701,189.994,154.701,196.902z"/>
	<path fill="#00CC52" d="M57.981,329.294c0,0,26.841-19.719,37.507-21.419c11.705-1.867,34.592,9.178,46.441,9.528
		c15.635,0.459,46.504-11.562,61.922-8.936c11.09,1.891,39.893,20.826,39.893,20.826H57.981z"/>
</g>
</svg>
