<?xml version="1.0" encoding="utf-8"?>
<!-- Generator: Adobe Illustrator 16.0.3, SVG Export Plug-In . SVG Version: 6.00 Build 0)  -->
<!DOCTYPE svg PUBLIC "-//W3C//DTD SVG 1.1//EN" "http://www.w3.org/Graphics/SVG/1.1/DTD/svg11.dtd">
<svg version="1.1" id="Layer_1" xmlns="http://www.w3.org/2000/svg" xmlns:xlink="http://www.w3.org/1999/xlink" x="0px" y="0px"
	 width="459px" height="376px" viewBox="0 0 459 376" enable-background="new 0 0 459 376" xml:space="preserve">
<path fill="#00CC52" d="M148.308,216.991c0,0-34.566,26.47-57.35,35.61c-38.533,15.457-86.325,9.043-86.147,19.75
	c0.255,12.892,66.714,11.709,93.063-1.438c48.058-24.004,60.043-50.023,60.043-50.023L148.308,216.991z"/>
<path fill="#00CC52" d="M311.021,226.243c0,0,34.568,26.471,57.351,35.612c38.533,15.455,86.325,9.041,86.146,19.75
	c-0.255,12.891-66.713,11.707-93.063-1.438c-48.058-24.005-60.043-50.024-60.043-50.024L311.021,226.243z"/>
<path fill="#00CC52" d="M255.237,25.336c24.683,22.188,48.331,33.429,48.331,70.868c0,40.505-40.35,73.334-80.849,73.334
	s-77.622-32.83-77.622-73.334c0-36.117,20.294-48.68,47.369-71.25c3.349-2.805,4.666-11.764-2.527-17.29
	c-16.194-12.446-62.314,43.615-62.314,88.541c0,50.141,44.954,90.796,95.094,90.796c50.141,0,98.321-40.655,98.321-90.796
	c0-46.292-47.887-99.615-63.466-88.185C251.411,12.545,251.988,22.409,255.237,25.336z"/>
<path fill="#7DFF8E" d="M344.934,230.477c0,78.604-53.307,142.324-119.06,142.324c-65.76,0-119.061-63.721-119.061-142.324
	c0-78.604,53.301-142.32,119.061-142.32C291.621,88.156,344.934,151.871,344.934,230.477z"/>
<path fill="#FFFFFF" d="M279.064,138.491c0,35.801-24.583,64.814-54.913,64.814c-30.323,0-54.91-29.014-54.91-64.814
	c0-35.806,24.587-64.813,54.91-64.813C254.481,73.677,279.064,102.686,279.064,138.491z"/>
<path d="M236.67,154.876c0,9.047-5.604,16.395-12.519,16.395s-12.518-7.348-12.518-16.395s5.604-16.39,12.518-16.39
	S236.67,145.829,236.67,154.876z"/>
</svg>
