<?xml version="1.0" encoding="utf-8"?>
<!-- Generator: Adobe Illustrator 16.0.3, SVG Export Plug-In . SVG Version: 6.00 Build 0)  -->
<!DOCTYPE svg PUBLIC "-//W3C//DTD SVG 1.1//EN" "http://www.w3.org/Graphics/SVG/1.1/DTD/svg11.dtd">
<svg version="1.1" id="Layer_1" xmlns="http://www.w3.org/2000/svg" xmlns:xlink="http://www.w3.org/1999/xlink" x="0px" y="0px"
	 width="453.146px" height="433.408px" viewBox="0 0 453.146 433.408" enable-background="new 0 0 453.146 433.408"
	 xml:space="preserve">
<g>
	<path fill="#00CC52" d="M323.402,131.12c5.671,19.249,14.286,32.527,2.418,51.795c-12.835,20.852-44.013,24.954-64.856,12.118
		c-20.842-12.836-29.547-41.498-16.711-62.346c11.45-18.589,25.874-18.623,46.968-21.66c2.616-0.376,6.13-4.571,4.177-9.696
		c-4.393-11.539-45.896,2.698-60.132,25.818c-15.895,25.807-5.644,60.979,20.166,76.874c25.807,15.892,63.487,10.239,79.378-15.573
		c14.675-23.823,6.928-66.441-4.712-65.499C325.488,123.323,322.656,128.587,323.402,131.12z"/>
	<path fill="#00CC52" d="M148.874,115.783c20.027-1.21,34.898-6.628,51.019,9.259c17.438,17.187,14.45,48.49-2.73,65.925
		c-17.187,17.432-47.07,19.486-64.508,2.305c-15.549-15.324-12.347-29.389-10.577-50.627c0.222-2.633-3.081-6.999-8.516-6.243
		c-12.229,1.687-7.66,45.329,11.678,64.39c21.588,21.274,58.162,19.171,79.438-2.416s24.214-59.577,2.627-80.851
		c-19.929-19.643-63.197-21.651-64.889-10.091C141.747,112.006,146.238,115.94,148.874,115.783z"/>
	<path fill="#00CC52" d="M246.18,29.533c27.574,20.707,53.077,30.164,56.493,68.908c3.706,41.909-35.054,79.569-76.958,83.269
		c-41.893,3.696-83.313-26.875-87.019-68.781c-3.303-37.37,16.548-52.221,42.501-78.063c3.224-3.198,3.763-12.586-4.19-17.642
		c-17.892-11.399-60.487,50.817-56.381,97.297c4.573,51.885,54.807,89.839,106.688,85.252
		c51.882-4.579,98.018-51.049,93.434-102.923c-4.234-47.902-58.645-98.689-73.726-85.441
		C241.054,16.654,242.558,26.806,246.18,29.533z"/>
	<g>
		<path fill="#00CC52" d="M90.538,305.09c0,0-24.019-2.568-36.677-7.603c-21.409-8.521-38.179-29.377-42.198-24.993
			c-4.833,5.282,22.351,30.218,37.975,35.001c28.514,8.729,43.28,2.841,43.28,2.841L90.538,305.09z"/>
		<path fill="#00CC52" d="M87.94,310.169c0,0-23.569,6.879-38.487-23.157c-4.966-10.025-0.711-46.619,6.257-45.089
			c6.644,1.464-1.59,31.063,2.661,40.171c10.34,22.175,31.066,22.252,31.066,22.252L87.94,310.169z"/>
		<path fill="#7DFF8E" d="M168.276,307.697c-64.547,12.526-99.086-14.596-99.086-14.596s-5.573,5.395-7.62,10.412
			c-2.237,5.504-2.6,9.188-2.6,9.188s32.579,6.019,80.323,28.932"/>
	</g>
	<g>
		<path fill="#00CC52" d="M87.712,334.103c0,0-24.149,0.003-37.273,3.662c-22.193,6.197-41.082,25.149-44.61,20.366
			c-4.245-5.766,25.431-27.671,41.473-30.769c29.28-5.646,43.339,1.776,43.339,1.776L87.712,334.103z"/>
		<path fill="#00CC52" d="M85.673,328.777c0,0-22.707-9.342-40.73,18.938c-6.003,9.438-5.659,46.278,1.431,45.495
			c6.762-0.748,1.722-31.052,6.915-39.659c12.636-20.951,33.256-18.822,33.256-18.822L85.673,328.777z"/>
		<path fill="#7DFF8E" d="M165.292,339.771c-62.851-19.313-100.077,3.982-100.077,3.982s-4.972-5.955-6.469-11.159
			c-1.644-5.712-1.611-9.413-1.611-9.413s33.036-2.523,82.945-20.234"/>
	</g>
	<g>
		<path fill="#00CC52" d="M362.326,305.09c0,0,24.019-2.568,36.675-7.603c21.411-8.521,38.181-29.377,42.2-24.993
			c4.833,5.282-22.352,30.218-37.975,35.001c-28.514,8.729-43.28,2.841-43.28,2.841L362.326,305.09z"/>
		<path fill="#00CC52" d="M364.925,310.169c0,0,23.569,6.879,38.487-23.157c4.966-10.025,0.711-46.619-6.257-45.089
			c-6.644,1.464,1.59,31.063-2.661,40.171c-10.34,22.175-31.066,22.252-31.066,22.252L364.925,310.169z"/>
		<path fill="#7DFF8E" d="M284.589,307.697c64.547,12.526,99.086-14.596,99.086-14.596s5.573,5.395,7.62,10.412
			c2.237,5.504,2.6,9.188,2.6,9.188s-32.58,6.019-80.324,28.932"/>
	</g>
	<g>
		<path fill="#00CC52" d="M365.153,334.103c0,0,24.148,0.003,37.273,3.662c22.193,6.197,41.082,25.149,44.61,20.366
			c4.245-5.766-25.431-27.671-41.473-30.769c-29.28-5.646-43.339,1.776-43.339,1.776L365.153,334.103z"/>
		<path fill="#00CC52" d="M367.192,328.777c0,0,22.707-9.342,40.729,18.938c6.004,9.438,5.66,46.278-1.43,45.495
			c-6.762-0.748-1.722-31.052-6.915-39.659c-12.636-20.951-33.256-18.822-33.256-18.822L367.192,328.777z"/>
		<path fill="#7DFF8E" d="M287.573,339.771c62.851-19.313,100.077,3.982,100.077,3.982s4.972-5.955,6.469-11.159
			c1.643-5.712,1.611-9.413,1.611-9.413s-33.036-2.523-82.945-20.234"/>
	</g>
	<path fill="#7DFF8E" d="M318.526,328.79c0,58.019-41.254,105.051-92.146,105.051c-50.894,0-92.147-47.032-92.147-105.051
		c0-58.017,41.255-105.05,92.147-105.05C277.266,223.74,318.526,270.773,318.526,328.79z"/>
	<path fill="#7DFF8E" d="M294.654,183.813c0,42.987-30.565,77.839-68.272,77.839c-37.71,0-68.274-34.851-68.274-77.839
		c0-42.984,30.564-77.835,68.274-77.835C264.086,105.978,294.654,140.829,294.654,183.813z"/>
	<path fill="#7DFF8E" d="M193.515,253.308c0,30.01-24.359,54.339-54.407,54.339c-30.052,0-54.411-24.329-54.411-54.339
		s24.359-54.336,54.411-54.336C169.152,198.972,193.515,223.299,193.515,253.308z"/>
	<path fill="#7DFF8E" d="M363.873,253.308c0,30.01-24.357,54.339-54.405,54.339c-30.052,0-54.409-24.329-54.409-54.339
		s24.357-54.336,54.409-54.336C339.513,198.972,363.873,223.299,363.873,253.308z"/>
	<path fill="#FFFFFF" d="M268.393,173.536c0,28.146-19.332,50.963-43.177,50.963c-23.844,0-43.176-22.815-43.176-50.963
		c0-28.15,19.332-50.961,43.176-50.961C249.061,122.575,268.393,145.385,268.393,173.536z"/>
	<path fill="#FFFFFF" d="M162.156,252.238c0,18.354-12.605,33.23-28.156,33.23c-15.546,0-28.149-14.878-28.149-33.23
		c0-18.357,12.604-33.232,28.149-33.232C149.55,219.005,162.156,233.88,162.156,252.238z"/>
	<path d="M235.813,192.559c0,7.653-4.744,13.876-10.597,13.876c-5.854,0-10.596-6.223-10.596-13.876
		c0-7.661,4.742-13.877,10.596-13.877C231.069,178.682,235.813,184.898,235.813,192.559z"/>
	<path d="M139.941,266.918c0,4.957-3.073,8.982-6.858,8.982c-3.79,0-6.859-4.025-6.859-8.982c0-4.959,3.069-8.983,6.859-8.983
		C136.867,257.934,139.941,261.959,139.941,266.918z"/>
	<path fill="#FFFFFF" d="M343.094,252.819c0,18.352-12.605,33.229-28.156,33.229c-15.549,0-28.152-14.877-28.152-33.229
		c0-18.359,12.604-33.234,28.152-33.234C330.488,219.584,343.094,234.459,343.094,252.819z"/>
	<path d="M320.88,267.5c0,4.955-3.074,8.981-6.859,8.981c-3.789,0-6.859-4.026-6.859-8.981c0-4.961,3.07-8.985,6.859-8.985
		C317.806,258.513,320.88,262.539,320.88,267.5z"/>
</g>
</svg>
