<?xml version="1.0" encoding="utf-8"?>
<!-- Generator: Adobe Illustrator 16.0.3, SVG Export Plug-In . SVG Version: 6.00 Build 0)  -->
<!DOCTYPE svg PUBLIC "-//W3C//DTD SVG 1.1//EN" "http://www.w3.org/Graphics/SVG/1.1/DTD/svg11.dtd">
<svg version="1.1" id="Layer_1" xmlns="http://www.w3.org/2000/svg" xmlns:xlink="http://www.w3.org/1999/xlink" x="0px" y="0px"
	 width="40.692px" height="96.111px" viewBox="0 0 40.692 96.111" enable-background="new 0 0 40.692 96.111" xml:space="preserve">
<g>
	<path fill="#CC7500" d="M29.166,94.198c0,0,0.016,1.583,0.517,1.792c1.367,0.569,4.416-1.004,4.229-2.082
		c-0.081-0.466-2.147-1.633-2.147-1.633L29.166,94.198z"/>
	<path fill="#FFF389" d="M31.007,5.46C21.843,1.789,1.165,17.794,0,45.353c1.168,29.604,19.334,47.755,28.607,49.183
		c1.314-0.151,3.073-1.352,3.562-2.5c1.257-5.833-10.208-25.96-9.691-45.953C22.888,30.181,39.652,8.923,31.007,5.46z"/>
	<path fill="#FFF389" d="M25.908,7.848c2.922-2.236,8.796-6.4,11.29-7.725c0,0-1.536,2.09,3.255,4.074
		c-1.448,0.738-7.386,3.269-10.035,7.123C30.417,11.319,25.612,9.016,25.908,7.848z"/>
	<path opacity="0.9" fill="#FFDF71" d="M25.654,8.813C7.806,19.522,5.236,37.259,5.016,46.57
		c-0.254,10.748,6.476,34.661,22.599,45.61C14.855,78.4,7.606,56.952,7.805,46.484C7.972,37.696,10.415,22.68,25.654,8.813z"/>
	<path opacity="0.9" fill="#FFDF71" d="M29.853,12.375c-9.629,9.974-15.538,24.284-15.73,33.594
		c-0.223,10.748,3.84,29.616,15.374,43.493c-8.023-14.485-12.878-32.854-12.704-43.321C16.902,39.6,21.362,26.336,29.853,12.375z"/>
	<path fill="#CC7500" d="M37.132,0.044c-0.492,0.261-0.876,2.823-0.409,3.466c0.49,0.674,3.003,1.254,3.729,0.837
		c0.529-0.304,0.082-2.304-0.4-2.959C39.566,0.725,37.621-0.215,37.132,0.044z"/>
</g>
</svg>
