<?xml version="1.0" encoding="utf-8"?>
<!-- Generator: Adobe Illustrator 16.0.3, SVG Export Plug-In . SVG Version: 6.00 Build 0)  -->
<!DOCTYPE svg PUBLIC "-//W3C//DTD SVG 1.1//EN" "http://www.w3.org/Graphics/SVG/1.1/DTD/svg11.dtd">
<svg version="1.1" id="Layer_1" xmlns="http://www.w3.org/2000/svg" xmlns:xlink="http://www.w3.org/1999/xlink" x="0px" y="0px"
	 width="40.939px" height="41.26px" viewBox="0 0 40.939 41.26" enable-background="new 0 0 40.939 41.26" xml:space="preserve">
<g>
	<circle fill="#5E5EFF" cx="20.47" cy="20.47" r="20.47"/>
	<circle fill="#6877FF" cx="20.47" cy="20.47" r="17.404"/>
	<circle fill="#8DA3FF" cx="20.47" cy="20.73" r="5.501"/>
	<circle fill="#FFF1DB" cx="20.469" cy="20.73" r="2.89"/>
	<path fill="#8DA3FF" d="M20.587,8.347c0,0,3.719,5.042,3.82,5.168c-2.537-1.028-5.597-0.915-7.643,0
		C16.895,13.332,20.587,8.347,20.587,8.347z"/>
	<path fill="#8DA3FF" d="M8.684,16.907c0,0,5.945-1.979,6.096-2.037c-1.761,2.094-2.599,5.039-2.36,7.27
		C12.284,21.959,8.684,16.907,8.684,16.907z"/>
	<path fill="#8DA3FF" d="M13.147,30.872c0,0-0.045-6.266-0.053-6.427c1.448,2.322,3.989,4.029,6.181,4.491
		C19.064,29.01,13.147,30.872,13.147,30.872z"/>
	<path fill="#8DA3FF" d="M27.809,30.943c0,0-5.974-1.894-6.128-1.936c2.655-0.659,5.063-2.548,6.181-4.491
		C27.866,24.741,27.809,30.943,27.809,30.943z"/>
	<path fill="#8DA3FF" d="M32.406,17.022c0,0-3.646,5.095-3.732,5.229c0.192-2.729-0.859-5.604-2.362-7.267
		C26.525,15.05,32.406,17.022,32.406,17.022z"/>
</g>
</svg>
