<?xml version="1.0" encoding="utf-8"?>
<!-- Generator: Adobe Illustrator 16.0.3, SVG Export Plug-In . SVG Version: 6.00 Build 0)  -->
<!DOCTYPE svg PUBLIC "-//W3C//DTD SVG 1.1//EN" "http://www.w3.org/Graphics/SVG/1.1/DTD/svg11.dtd">
<svg version="1.1" id="Layer_1" xmlns="http://www.w3.org/2000/svg" xmlns:xlink="http://www.w3.org/1999/xlink" x="0px" y="0px"
	 width="74.232px" height="86.938px" viewBox="6.414 15.014 74.232 86.938" enable-background="new 6.414 15.014 74.232 86.938"
	 xml:space="preserve">
<g>
	<path fill="#FFF0B0" d="M22.245,73.077c0,0,11.367-38.541,34.733-50.238l3.943,6.32c0,0-21.156,6.011-35.225,47.083L22.245,73.077z
		"/>
	<circle fill="#FF5E8F" cx="22.025" cy="82.267" r="15.61"/>
	<circle fill="#FF89BE" cx="22.025" cy="82.267" r="11.409"/>
	<circle opacity="0.9" fill="#FFFFFF" enable-background="new    " cx="17.62" cy="79.004" r="4.051"/>
	<path opacity="0.9" fill="#FFFFFF" enable-background="new    " d="M27.684,77.617c-0.413,1.321-1.821,2.061-3.145,1.646
		c-1.323-0.414-2.058-1.823-1.646-3.146c0.415-1.323,1.823-2.061,3.146-1.647C27.364,74.885,28.099,76.293,27.684,77.617z"/>
	<circle opacity="0.9" fill="#FFFFFF" enable-background="new    " cx="19.832" cy="87.095" r="1.937"/>
	<path fill="#FFF0B0" d="M60.108,82.827c0,0-14.979-34.881-6.157-59.478l6.964,0.08c0,0-11.556,21.183,3.875,59.301L60.108,82.827z"
		/>
	<circle fill="#FF5E8F" cx="65.036" cy="86.341" r="15.61"/>
	<circle fill="#FF89BE" cx="65.035" cy="86.342" r="11.41"/>
	<path fill="#D2FF69" d="M51.704,17.707C22.271,36.196,43.554,59.8,43.554,59.8c34.248-11.061,14.601-40.276,14.601-40.276
		l-2.159-4.51L51.704,17.707z"/>
	<circle opacity="0.9" fill="#FFFFFF" enable-background="new    " cx="61.591" cy="84.398" r="4.052"/>
	<circle opacity="0.9" fill="#FFFFFF" enable-background="new    " cx="68.787" cy="81.507" r="2.51"/>
	<circle opacity="0.9" fill="#FFFFFF" enable-background="new    " cx="64.283" cy="92.344" r="1.937"/>
</g>
</svg>
