<?xml version="1.0" encoding="utf-8"?>
<!-- Generator: Adobe Illustrator 16.0.3, SVG Export Plug-In . SVG Version: 6.00 Build 0)  -->
<!DOCTYPE svg PUBLIC "-//W3C//DTD SVG 1.1//EN" "http://www.w3.org/Graphics/SVG/1.1/DTD/svg11.dtd">
<svg version="1.1" id="Layer_1" xmlns="http://www.w3.org/2000/svg" xmlns:xlink="http://www.w3.org/1999/xlink" x="0px" y="0px"
	 width="56.977px" height="57.483px" viewBox="-6.011 -12.022 56.977 57.483" enable-background="new -6.011 -12.022 56.977 57.483"
	 xml:space="preserve">
<g>
	<path fill="#BA8D7F" d="M50.966,16.467c0,15.733-12.754,28.489-28.488,28.489C6.742,44.956-6.011,32.2-6.011,16.467
		c0-15.734,12.755-28.489,28.489-28.489C37.089-12.022,50.966,0.731,50.966,16.467z"/>
	<circle fill="#906866" cx="7.396" cy="3.815" r="4.085"/>
	<circle fill="#906866" cx="18.175" cy="-2.083" r="4.085"/>
	<circle fill="#906866" cx="18.594" cy="9.754" r="4.085"/>
	<path fill="#FFEFD7" d="M18.967,28.438c-0.307-1.978-0.115-2.567-0.115-2.567c-0.118,0.109-2.779-0.063-3.271-0.102
		c0.153,1.314,0.092,1.777,0.024,2.874c-0.309,1.539-0.423,3.758-0.273,4.706c0.249,1.564,1.473,2.671,2.732,2.473
		c1.262-0.198,2.084-1.631,1.834-3.193C19.79,31.95,19.39,29.965,18.967,28.438z"/>
	<path fill="#FFEFD7" d="M24.612,28.168c0.039-1.42-0.148-1.822-0.148-1.822c0.094,0.068,1.953-0.295,2.298-0.366
		c0.012,0.943,0.097,1.26,0.24,2.028c0.354,1.058,0.64,2.613,0.618,3.294c-0.033,1.126-0.798,2.018-1.703,1.988
		c-0.908-0.028-1.615-0.961-1.582-2.088C24.349,30.72,24.453,29.283,24.612,28.168z"/>
	<path fill="#FFEFD7" d="M47.779,19.552c-2.996,1.018-5.917,1.826-8.748,2.455c-4.746,1.745-10.42,2.757-16.514,2.757
		c-5.92,0-11.438-0.958-16.101-2.611c-3.842-0.849-7.017-1.886-9.402-2.804c5.374,4.725,14.784,7.859,25.502,7.859
		C33.079,27.208,42.37,24.162,47.779,19.552z"/>
</g>
</svg>
