<?xml version="1.0" encoding="utf-8"?>
<!-- Generator: Adobe Illustrator 16.0.3, SVG Export Plug-In . SVG Version: 6.00 Build 0)  -->
<!DOCTYPE svg PUBLIC "-//W3C//DTD SVG 1.1//EN" "http://www.w3.org/Graphics/SVG/1.1/DTD/svg11.dtd">
<svg version="1.1" id="Layer_1" xmlns="http://www.w3.org/2000/svg" xmlns:xlink="http://www.w3.org/1999/xlink" x="0px" y="0px"
	 width="39.139px" height="39.141px" viewBox="0 0 39.139 39.141" enable-background="new 0 0 39.139 39.141" xml:space="preserve">
<g>
	<circle fill="#FF7174" cx="19.569" cy="19.57" r="19.569"/>
	<circle fill="#FFD3BC" cx="19.569" cy="19.57" r="5.765"/>
	<g>
		<g>
			<path fill="#F26174" d="M22.411,20.749c0.459,0.459,0.459,1.203,0,1.663l0,0c-0.459,0.459-1.205,0.459-1.663,0l-4.021-4.021
				c-0.458-0.458-0.458-1.204,0-1.663l0,0c0.46-0.459,1.206-0.459,1.664,0L22.411,20.749z"/>
		</g>
		<g>
			<path fill="#F26174" d="M18.392,22.412c-0.459,0.46-1.205,0.459-1.665-0.001l0,0c-0.458-0.459-0.459-1.203,0-1.663l4.021-4.02
				c0.458-0.459,1.204-0.459,1.663,0l0,0c0.459,0.458,0.459,1.205,0.001,1.663L18.392,22.412z"/>
		</g>
	</g>
</g>
</svg>
