<?xml version="1.0" encoding="utf-8"?>
<!-- Generator: Adobe Illustrator 16.0.3, SVG Export Plug-In . SVG Version: 6.00 Build 0)  -->
<!DOCTYPE svg PUBLIC "-//W3C//DTD SVG 1.1//EN" "http://www.w3.org/Graphics/SVG/1.1/DTD/svg11.dtd">
<svg version="1.1" id="Layer_1" xmlns="http://www.w3.org/2000/svg" xmlns:xlink="http://www.w3.org/1999/xlink" x="0px" y="0px"
	 width="73.449px" height="110.925px" viewBox="31.124 14.354 73.449 110.925"
	 enable-background="new 31.124 14.354 73.449 110.925" xml:space="preserve">
<g>
	<path fill="#ECFF89" d="M63.649,118.549c0,0,29.143,4.313,37.435-8.339c-0.269-1.903-10.031,7.72-18.419,1.368L63.649,118.549z"/>
	<path fill="#ECFF89" d="M66.887,115.39c0,0-26.899-1.902-31.813-14.848c0.617-1.649,7.44,8.88,16.193,4.859L66.887,115.39z"/>
	<path fill="#ECFF89" d="M80.413,60.357c2.226-3.741,9.436-13.56,7.248-21.307c0.901-3.051,9.455,12.412-7.182,29.848
		C78.778,69.001,79.278,62.268,80.413,60.357z"/>
	<path fill="#ECFF89" d="M58.195,56.068c-1.95-3.797-8.413-13.817-5.743-21.377c-0.688-3.053-10.146,11.847,5.116,29.811
		C59.236,64.681,59.187,58.003,58.195,56.068z"/>
	<path fill="#ECFF89" d="M65.453,50.8c-6.24-13.256-0.978-15.191-12.615-23.367c2.363-1.357,15.883,4.23,17.509,20.737
		C70.347,48.169,67.887,51.753,65.453,50.8z"/>
	<path fill="#ECFF89" d="M71.018,51.375c8.045-14.387,3.045-17.046,15.795-25.214c-2.178-1.744-16.459,3.334-20.332,21.804
		C66.48,47.965,68.451,52.23,71.018,51.375z"/>
	<path fill="#ECFF89" d="M66.521,41.183c0,0-0.486-19.024,1.918-26.829c2.653,7.116,2.652,19.33,2.586,26.733L66.521,41.183z"/>
	<path fill="#FF4A74" d="M31.124,78.765c0.514,10.442,5.841,18.749,11.648,19.522c2.538,0.339,6.36,5.249,6.36,5.249
		s-5.471-13.006-8.47-16.56C35.512,89.531,32.478,78.599,31.124,78.765z"/>
	<path fill="#FF4A74" d="M100.86,82.327c0,23.722-14.031,42.951-31.342,42.951c-14.837,0-31.34-16.026-31.34-42.951
		c0-23.722,14.031-42.951,31.34-42.951C86.829,39.376,100.86,58.606,100.86,82.327z"/>
	<path fill="#FF4A74" d="M90.255,108.115c3.174-2.979,12.818-10.421,12.859-18.471c1.71-2.683,5.651,14.544-15.159,26.695
		C86.293,115.97,88.636,109.637,90.255,108.115z"/>
	<path fill="#FF4A74" d="M69.808,46.158c1.11,1.097-6.137,3.609-6.137,3.609s-6.203-13.18,2.842-21.336
		C68.341,29.119,64.356,40.764,69.808,46.158z"/>
	<path fill="#FF4A74" d="M67.836,46.158c-1.11,1.097,6.137,3.609,6.137,3.609s6.203-13.18-2.842-21.336
		C69.303,29.119,73.287,40.764,67.836,46.158z"/>
	<path fill="#FF4A74" d="M94.806,71.324c0,0,4.176-7.151,1.371-22.048c1.794-3.758,6.612,12.64,6.61,24.266
		c-0.001,4.694-3.463,18.889-3.463,18.889L94.806,71.324z"/>
	<path fill="#FF4A74" d="M44.186,94.76c0,0-15.742-36.356-2.194-51.53c2.567-0.313-6.536,15.718,4.633,24.403L44.186,94.76z"/>
	<ellipse fill="#FFFDEF" cx="69.705" cy="81.96" rx="26.839" ry="38.538"/>
	<g>
		<path fill="#4A4A4A" d="M92.672,76.195c-0.713,1.567-5.995,3.226-6.799,2.235c-0.805-0.989,1.9-5.821,3.58-6.198
			C91.136,71.856,93.387,74.625,92.672,76.195z"/>
		<g>
			<path fill="#4A4A4A" d="M56.185,71.936c-0.354-1.686,2.921-6.15,4.154-5.83c1.234,0.321,1.917,5.815,0.787,7.115
				C59.994,74.521,56.54,73.622,56.185,71.936z"/>
			<path fill="#4A4A4A" d="M68.648,58.384c1.667,0.434,4.208,5.352,3.37,6.314c-0.837,0.963-6.062-0.873-6.721-2.464
				C64.637,60.642,66.979,57.949,68.648,58.384z"/>
			<path fill="#4A4A4A" d="M83.174,54.18c0.264,1.702-3.241,5.986-4.457,5.6c-1.217-0.386-1.605-5.909-0.407-7.146
				C79.509,51.394,82.91,52.476,83.174,54.18z"/>
			<path fill="#4A4A4A" d="M57.813,53.099c1.616,0.594,3.665,5.736,2.737,6.612c-0.928,0.878-5.947-1.46-6.448-3.107
				C53.6,54.954,56.195,52.503,57.813,53.099z"/>
			<path fill="#4A4A4A" d="M61.261,104.918c0.105,1.718-3.78,5.661-4.956,5.163c-1.177-0.497-1.052-6.032,0.255-7.153
				C57.868,101.805,61.155,103.197,61.261,104.918z"/>
			<path fill="#4A4A4A" d="M73.405,112.629c0.169-1.713,4.633-4.987,5.715-4.309c1.082,0.678,0.078,6.122-1.39,7.021
				C76.26,116.242,73.235,114.346,73.405,112.629z"/>
			<path fill="#4A4A4A" d="M51.987,74.576c0.105,1.718-3.78,5.661-4.956,5.163c-1.177-0.497-1.052-6.032,0.255-7.153
				C48.595,71.463,51.882,72.855,51.987,74.576z"/>
			<path fill="#4A4A4A" d="M82.377,72.349c-1.512,0.824-6.729-1.024-6.777-2.299c-0.049-1.275,5.017-3.511,6.586-2.802
				C83.757,67.957,83.891,71.523,82.377,72.349z"/>
			<path fill="#4A4A4A" d="M53.329,82.259c1.681-0.376,6.188,2.837,5.884,4.075s-5.789,1.995-7.104,0.882
				C50.794,86.102,51.646,82.637,53.329,82.259z"/>
			<path fill="#4A4A4A" d="M65.47,78.049c0.789-1.529,6.146-2.927,6.9-1.898c0.756,1.028-2.184,5.72-3.88,6.016
				C66.792,82.459,64.68,79.582,65.47,78.049z"/>
			<path fill="#4A4A4A" d="M84.771,88.815c-1.669,0.425-6.269-2.656-5.999-3.903c0.268-1.247,5.729-2.162,7.074-1.088
				C87.192,84.9,86.441,88.389,84.771,88.815z"/>
			<path fill="#4A4A4A" d="M60.199,97.865c-1.68,0.385-6.203-2.809-5.903-4.048c0.298-1.24,5.779-2.022,7.099-0.915
				C62.715,94.011,61.88,97.481,60.199,97.865z"/>
			<path fill="#4A4A4A" d="M73.097,94.536c-1.67,0.421-6.263-2.669-5.992-3.916c0.271-1.246,5.733-2.149,7.077-1.072
				C75.527,90.627,74.768,94.115,73.097,94.536z"/>
			<path fill="#4A4A4A" d="M80.4,96.053c1.723,0.027,5.354,4.205,4.769,5.338c-0.586,1.134-6.095,0.587-7.112-0.802
				C77.038,99.198,78.676,96.027,80.4,96.053z"/>
			<path fill="#4A4A4A" d="M66.7,101.304c1.27-1.164,6.779-0.625,7.133,0.6c0.354,1.227-4.024,4.615-5.718,4.306
				C66.419,105.899,65.431,102.471,66.7,101.304z"/>
		</g>
	</g>
</g>
</svg>
