<?xml version="1.0" encoding="utf-8"?>
<!-- Generator: Adobe Illustrator 16.0.3, SVG Export Plug-In . SVG Version: 6.00 Build 0)  -->
<!DOCTYPE svg PUBLIC "-//W3C//DTD SVG 1.1//EN" "http://www.w3.org/Graphics/SVG/1.1/DTD/svg11.dtd">
<svg version="1.1" id="Layer_1" xmlns="http://www.w3.org/2000/svg" xmlns:xlink="http://www.w3.org/1999/xlink" x="0px" y="0px"
	 width="60.515px" height="60.514px" viewBox="74.84 -17.03 60.515 60.514" enable-background="new 74.84 -17.03 60.515 60.514"
	 xml:space="preserve">
<g>
	<circle fill="#FFFCA4" cx="105.096" cy="13.227" r="30.257"/>
	<circle fill="#FFFFFF" cx="105.096" cy="13.227" r="9.612"/>
	<ellipse fill="#565656" cx="104.984" cy="-0.806" rx="1.306" ry="2.074"/>
	
		<ellipse transform="matrix(-0.9659 0.2588 -0.2588 -0.9659 199.1705 -26.8554)" fill="#565656" cx="101.353" cy="-0.319" rx="1.306" ry="2.074"/>
	
		<ellipse transform="matrix(-0.866 0.5 -0.5 -0.866 183.3656 -46.9508)" fill="#565656" cx="97.972" cy="1.089" rx="1.306" ry="2.074"/>
	
		<ellipse transform="matrix(-0.7073 0.7069 -0.7069 -0.7073 164.6613 -61.5296)" fill="#565656" cx="95.069" cy="3.325" rx="1.306" ry="2.074"/>
	
		<ellipse transform="matrix(-0.5002 0.8659 -0.8659 -0.5002 144.6835 -71.0439)" fill="#565656" cx="92.845" cy="6.234" rx="1.307" ry="2.074"/>
	
		<ellipse transform="matrix(-0.2589 0.9659 -0.9659 -0.2589 124.422 -76.2161)" fill="#565656" cx="91.448" cy="9.622" rx="1.307" ry="2.073"/>
	<ellipse fill="#565656" cx="90.979" cy="13.257" rx="2.072" ry="1.307"/>
	
		<ellipse transform="matrix(0.2587 0.966 -0.966 0.2587 84.12 -75.831)" fill="#565656" cx="91.464" cy="16.889" rx="1.308" ry="2.073"/>
	
		<ellipse transform="matrix(0.5002 0.8659 -0.8659 0.5002 63.9725 -70.2925)" fill="#565656" cx="92.874" cy="20.267" rx="1.308" ry="2.073"/>
	<path fill="#565656" d="M93.645,24.636c-0.513-0.508-0.271-1.58,0.541-2.391c0.811-0.811,1.879-1.05,2.391-0.541
		c0.51,0.509,0.267,1.582-0.544,2.39C95.222,24.905,94.154,25.147,93.645,24.636z"/>
	<path fill="#565656" d="M96.985,27.19c-0.626-0.357-0.67-1.457-0.097-2.45c0.573-0.991,1.544-1.5,2.169-1.143
		c0.624,0.36,0.667,1.46,0.093,2.45C98.579,27.04,97.609,27.549,96.985,27.19z"/>
	<path fill="#565656" d="M100.872,28.791c-0.697-0.184-1.024-1.233-0.727-2.342c0.297-1.106,1.103-1.85,1.8-1.664
		c0.694,0.187,1.021,1.238,0.723,2.343C102.374,28.235,101.568,28.977,100.872,28.791z"/>
	<path fill="#565656" d="M105.042,29.332c-0.721,0.004-1.309-0.926-1.309-2.073c0-1.146,0.588-2.07,1.309-2.073
		c0.72,0,1.307,0.932,1.305,2.075C106.348,28.406,105.761,29.332,105.042,29.332z"/>
	<path fill="#565656" d="M109.209,28.776c-0.694,0.19-1.504-0.557-1.8-1.664c-0.296-1.105,0.032-2.152,0.727-2.341
		c0.696-0.188,1.503,0.561,1.797,1.667C110.233,27.543,109.905,28.588,109.209,28.776z"/>
	<path fill="#565656" d="M113.091,27.159c-0.622,0.364-1.597-0.146-2.17-1.142c-0.573-0.992-0.525-2.088,0.097-2.448
		c0.623-0.361,1.598,0.151,2.168,1.145C113.761,25.704,113.715,26.799,113.091,27.159z"/>
	<path fill="#565656" d="M116.421,24.594c-0.504,0.514-1.58,0.272-2.391-0.541c-0.811-0.81-1.048-1.88-0.541-2.39
		c0.509-0.511,1.582-0.267,2.391,0.544C116.693,23.015,116.929,24.084,116.421,24.594z"/>
	<path fill="#565656" d="M118.974,21.254c-0.354,0.626-1.454,0.672-2.448,0.097c-0.992-0.572-1.499-1.546-1.143-2.168
		c0.36-0.626,1.459-0.669,2.451-0.094C118.83,19.657,119.334,20.629,118.974,21.254z"/>
	<path fill="#565656" d="M120.576,17.366c-0.18,0.696-1.231,1.024-2.341,0.729c-1.107-0.297-1.85-1.105-1.663-1.8
		c0.186-0.697,1.234-1.022,2.343-0.724C120.022,15.862,120.76,16.67,120.576,17.366z"/>
	<path fill="#565656" d="M121.116,13.198c0.009,0.719-0.924,1.31-2.071,1.31c-1.146,0-2.072-0.59-2.072-1.309
		c-0.002-0.722,0.93-1.309,2.076-1.306C120.192,11.887,121.116,12.477,121.116,13.198z"/>
	<path fill="#565656" d="M120.56,9.031c0.193,0.69-0.555,1.504-1.663,1.801c-1.107,0.296-2.154-0.033-2.341-0.727
		c-0.188-0.696,0.559-1.505,1.667-1.799C119.328,8.004,120.373,8.335,120.56,9.031z"/>
	<path fill="#565656" d="M118.944,5.149c0.366,0.617-0.146,1.596-1.14,2.17c-0.994,0.573-2.092,0.525-2.448-0.097
		c-0.364-0.624,0.148-1.598,1.144-2.169C117.488,4.477,118.585,4.527,118.944,5.149z"/>
	<path fill="#565656" d="M116.379,1.819c0.516,0.501,0.272,1.579-0.539,2.39c-0.811,0.811-1.883,1.05-2.39,0.542
		c-0.513-0.508-0.271-1.582,0.544-2.391C114.799,1.546,115.87,1.309,116.379,1.819z"/>
	<path fill="#565656" d="M113.037-0.735c0.629,0.352,0.674,1.455,0.101,2.448c-0.574,0.994-1.548,1.502-2.168,1.142
		c-0.628-0.358-0.671-1.457-0.096-2.45C111.442-0.588,112.416-1.094,113.037-0.735z"/>
	<path fill="#565656" d="M109.151-2.336c0.695,0.177,1.025,1.231,0.729,2.339c-0.298,1.108-1.106,1.853-1.8,1.664
		c-0.698-0.184-1.023-1.234-0.726-2.342C107.648-1.782,108.457-2.522,109.151-2.336z"/>
</g>
</svg>
