<?xml version="1.0" encoding="utf-8"?>
<!-- Generator: Adobe Illustrator 16.0.3, SVG Export Plug-In . SVG Version: 6.00 Build 0)  -->
<!DOCTYPE svg PUBLIC "-//W3C//DTD SVG 1.1//EN" "http://www.w3.org/Graphics/SVG/1.1/DTD/svg11.dtd">
<svg version="1.1" id="Layer_1" xmlns="http://www.w3.org/2000/svg" xmlns:xlink="http://www.w3.org/1999/xlink" x="0px" y="0px"
	 width="72.516px" height="61.679px" viewBox="0 0 72.516 61.679" enable-background="new 0 0 72.516 61.679" xml:space="preserve">
<g>
	<g>
		<path fill="#FF69F6" d="M43.623,37.134c0,0,4.505,1.329,5.252,2.497c0.888,1.413,0.864,3.478,0.434,8.163
			c0,0-2.56-4.653-3.685-5.973c-0.77-0.9-3.892-2.906-3.892-2.906"/>
		<path fill="#FF69F6" d="M37.029,41.009c0,0-1.031,4.581-0.373,5.802c0.803,1.464,2.618,2.447,6.92,4.351
			c0,0-2.818-4.499-3.424-6.124c-0.414-1.11-0.645-4.813-0.645-4.813"/>
	</g>
	<g>
		<path fill="#8588FF" d="M54.655,24.118c-3.582-0.956-5.936,0.526-7.441,2.428c-0.236-0.681-0.537-1.353-0.874-2.017
			c2.608-2.011,6.726-4.952,9.117-5.47c2.559-0.554,16.932-1.982,16.932-1.982s-15.271-4.016-18.561-3.267
			c-4.82,1.101-7.755,4.804-9.385,7.768c-0.362-0.45-0.744-0.869-1.139-1.271c0.431-2.409,1.448-6.595,3.484-7.97
			c2.022-1.366,15.575-8.367,15.575-8.367S46.129,6.18,43.562,7.971c-3.712,2.594-4.047,6.65-3.641,9.683
			c-0.645-0.38-1.302-0.719-1.972-0.992c0.689-2.526,0.656-5.409-0.397-8.162c-2.42-6.316-7.53-10.232-14.041-7.739
			c-6.297,2.41-7.023,8.562-4.605,14.88c0.998,2.605,2.644,4.721,4.561,6.191c-0.093,0.219-0.181,0.439-0.259,0.664
			c-1.964-1.549-4.585-2.644-7.814-1.847C12.354,21.402,0,32.166,0,32.166s14.193-5.589,16.554-6.212
			c1.661-0.438,4.029,0.405,6.021,1.384c0.051,0.858,0.182,1.727,0.394,2.595c-3.04-0.348-6.72-0.049-9.941,2.288
			c-2.73,1.981-9.765,16.12-9.765,16.12s10.54-9.876,12.642-11.438c1.683-1.25,5.546-2.283,8.65-2.956
			c0.327,0.585,0.705,1.153,1.112,1.712c-2.032,0.211-4.078,1.235-5.428,3.973c-1.411,2.862-1.925,22.048-1.925,22.048
			s4.676-13.966,5.749-16.214c0.994-2.086,4.319-4.08,6.576-5.244c4.497,2.663,9.801,2.783,13.507-0.17
			c2.329-1.855,3.607-4.601,3.852-7.617c2.344-0.943,6.224-2.245,8.53-1.597c2.397,0.674,15.987,6.351,15.987,6.351
			S57.739,24.941,54.655,24.118z"/>
	</g>
	<g>
		<circle fill="#DEFFA8" cx="42.631" cy="35.653" r="1.978"/>
		<circle fill="#DEFFA8" cx="44.408" cy="32.057" r="1.373"/>
	</g>
	<g>
		<circle fill="#DEFFA8" cx="36.67" cy="38.641" r="1.978"/>
		<circle fill="#DEFFA8" cx="32.754" cy="37.774" r="1.373"/>
	</g>
	<path fill="#DEFFA8" d="M24.471,12.418c0,0,2.659,1.647,7.01,2.801c1.569-1.187,2.617-3.035,2.654-5.154
		c0.06-3.414-2.484-6.238-5.799-6.657c0.555,4.509,1.597,8.39,1.597,8.39c-4.394-0.958-6.105-4.343-6.778-6.814
		c-1.354,1.188-2.236,2.904-2.271,4.849c-0.057,3.278,2.28,6.024,5.397,6.61C25.141,15.117,24.321,13.695,24.471,12.418z"/>
</g>
</svg>
