<?xml version="1.0" encoding="utf-8"?>
<!-- Generator: Adobe Illustrator 16.0.3, SVG Export Plug-In . SVG Version: 6.00 Build 0)  -->
<!DOCTYPE svg PUBLIC "-//W3C//DTD SVG 1.1//EN" "http://www.w3.org/Graphics/SVG/1.1/DTD/svg11.dtd">
<svg version="1.1" id="Layer_1" xmlns="http://www.w3.org/2000/svg" xmlns:xlink="http://www.w3.org/1999/xlink" x="0px" y="0px"
	 width="60.515px" height="60.515px" viewBox="0 0.001 60.515 60.515" enable-background="new 0 0.001 60.515 60.515"
	 xml:space="preserve">
<g>
	<circle fill="#E3FF9C" cx="30.257" cy="30.258" r="30.257"/>
	<circle fill="#FFFFFF" cx="30.257" cy="30.258" r="9.612"/>
	<ellipse fill="#565656" cx="30.144" cy="16.225" rx="1.306" ry="2.074"/>
	
		<ellipse transform="matrix(-0.2587 -0.9659 0.9659 -0.2587 17.2315 46.6438)" fill="#565656" cx="26.513" cy="16.71" rx="2.074" ry="1.306"/>
	
		<ellipse transform="matrix(-0.5 -0.866 0.866 -0.5 19.0067 47.2103)" fill="#565656" cx="23.131" cy="18.119" rx="2.074" ry="1.306"/>
	
		<ellipse transform="matrix(-0.7071 -0.7071 0.7071 -0.7071 20.1402 49.0528)" fill="#565656" cx="20.229" cy="20.355" rx="2.074" ry="1.306"/>
	
		<ellipse transform="matrix(-0.8661 -0.5 0.5 -0.8661 21.965 52.418)" fill="#565656" cx="18.004" cy="23.267" rx="2.074" ry="1.307"/>
	
		<ellipse transform="matrix(-0.966 -0.2587 0.2587 -0.966 25.7586 56.6973)" fill="#565656" cx="16.61" cy="26.654" rx="2.073" ry="1.307"/>
	<ellipse fill="#565656" cx="16.139" cy="30.287" rx="2.073" ry="1.307"/>
	
		<ellipse transform="matrix(-0.9659 0.2589 -0.2589 -0.9659 41.4636 62.377)" fill="#565656" cx="16.625" cy="33.918" rx="2.073" ry="1.308"/>
	
		<ellipse transform="matrix(-0.8659 0.5003 -0.5003 -0.8659 52.3104 60.5731)" fill="#565656" cx="18.034" cy="37.3" rx="2.073" ry="1.308"/>
	<path fill="#565656" d="M18.805,41.667c-0.512-0.508-0.271-1.58,0.541-2.391c0.811-0.81,1.879-1.05,2.391-0.541
		c0.51,0.509,0.267,1.582-0.544,2.39C20.383,41.935,19.314,42.177,18.805,41.667z"/>
	<path fill="#565656" d="M22.145,44.22c-0.626-0.357-0.67-1.457-0.096-2.45c0.573-0.991,1.544-1.5,2.169-1.142
		c0.624,0.36,0.667,1.46,0.092,2.45C23.739,44.071,22.769,44.58,22.145,44.22z"/>
	<path fill="#565656" d="M26.032,45.822c-0.697-0.184-1.024-1.233-0.727-2.342c0.297-1.106,1.103-1.849,1.8-1.664
		c0.695,0.187,1.022,1.238,0.723,2.343C27.534,45.265,26.728,46.008,26.032,45.822z"/>
	<path fill="#565656" d="M30.202,46.363c-0.721,0.004-1.309-0.926-1.309-2.073c0-1.146,0.588-2.071,1.309-2.073
		c0.72,0,1.307,0.931,1.305,2.075C31.509,45.437,30.922,46.363,30.202,46.363z"/>
	<path fill="#565656" d="M34.369,45.806c-0.694,0.191-1.504-0.556-1.8-1.664c-0.296-1.105,0.032-2.152,0.727-2.341
		c0.696-0.187,1.503,0.561,1.797,1.667C35.393,44.574,35.065,45.619,34.369,45.806z"/>
	<path fill="#565656" d="M38.251,44.19c-0.622,0.364-1.597-0.146-2.17-1.141c-0.573-0.993-0.526-2.088,0.096-2.449
		c0.624-0.361,1.598,0.152,2.168,1.145C38.922,42.735,38.875,43.83,38.251,44.19z"/>
	<path fill="#565656" d="M41.581,41.625c-0.504,0.513-1.58,0.272-2.391-0.541c-0.81-0.81-1.048-1.88-0.541-2.39
		c0.509-0.511,1.582-0.267,2.391,0.544C41.853,40.046,42.09,41.115,41.581,41.625z"/>
	<path fill="#565656" d="M44.135,38.285c-0.354,0.626-1.455,0.672-2.449,0.097c-0.992-0.573-1.499-1.546-1.142-2.168
		c0.36-0.626,1.459-0.669,2.451-0.094C43.99,36.688,44.494,37.66,44.135,38.285z"/>
	<path fill="#565656" d="M45.736,34.397c-0.18,0.696-1.231,1.025-2.341,0.729c-1.107-0.297-1.849-1.106-1.663-1.8
		c0.186-0.697,1.235-1.023,2.343-0.724C45.182,32.892,45.921,33.701,45.736,34.397z"/>
	<path fill="#565656" d="M46.276,30.228c0.009,0.719-0.924,1.31-2.071,1.31c-1.146,0-2.072-0.59-2.072-1.309
		c-0.002-0.721,0.929-1.308,2.076-1.305C45.352,28.918,46.276,29.508,46.276,30.228z"/>
	<path fill="#565656" d="M45.72,26.061c0.194,0.691-0.554,1.504-1.663,1.801c-1.107,0.296-2.154-0.033-2.34-0.727
		c-0.189-0.696,0.558-1.504,1.667-1.798C44.488,25.035,45.533,25.366,45.72,26.061z"/>
	<path fill="#565656" d="M44.104,22.179c0.366,0.618-0.145,1.596-1.139,2.17c-0.995,0.574-2.092,0.526-2.449-0.096
		c-0.364-0.624,0.149-1.598,1.144-2.169C42.648,21.508,43.745,21.557,44.104,22.179z"/>
	<path fill="#565656" d="M41.539,18.849c0.515,0.501,0.272,1.579-0.539,2.39s-1.883,1.05-2.39,0.542
		c-0.513-0.508-0.27-1.582,0.544-2.391C39.959,18.577,41.03,18.34,41.539,18.849z"/>
	<path fill="#565656" d="M38.197,16.296c0.629,0.351,0.674,1.455,0.101,2.448c-0.575,0.994-1.548,1.502-2.168,1.141
		c-0.628-0.358-0.671-1.457-0.096-2.45C36.602,16.443,37.576,15.936,38.197,16.296z"/>
	<path fill="#565656" d="M34.311,14.695c0.696,0.177,1.026,1.231,0.73,2.339c-0.298,1.108-1.107,1.852-1.8,1.664
		c-0.698-0.184-1.023-1.234-0.726-2.342C32.808,15.249,33.617,14.509,34.311,14.695z"/>
</g>
</svg>
