<?xml version="1.0" encoding="utf-8"?>
<!-- Generator: Adobe Illustrator 16.0.3, SVG Export Plug-In . SVG Version: 6.00 Build 0)  -->
<!DOCTYPE svg PUBLIC "-//W3C//DTD SVG 1.1//EN" "http://www.w3.org/Graphics/SVG/1.1/DTD/svg11.dtd">
<svg version="1.1" id="Layer_1" xmlns="http://www.w3.org/2000/svg" xmlns:xlink="http://www.w3.org/1999/xlink" x="0px" y="0px"
	 width="91.692px" height="54.533px" viewBox="0 0 91.692 54.533" enable-background="new 0 0 91.692 54.533" xml:space="preserve">
<g>
	<path fill="#FFD7B4" d="M14.364,28.957c-9.389-3.636-10.243-2.36-13.778-1.762c-0.282-0.35-0.373-1.836-0.104-2.156
		c4.208-0.547,7.069-0.347,14.126,1.901C14.607,27.966,14.652,27.824,14.364,28.957z"/>
	<path fill="#FFD7B4" d="M0,25.318c0.191-6.844-0.014-12.049,8.439-16.487C9.2,9.217,9.655,9.685,9.923,10.334
		C2.658,13.577,1.645,21.23,1.95,25.3c0,0,0.061,10.848,6.029,15.67c-0.945,0.877-1.907,1.078-2.856,1.275
		C5.16,42.263,0.136,36.692,0,25.318z"/>
	<path fill="#DDFF69" d="M0.286,18.582c3.32,2.379,11.492,0.422,14.458-2.251c2.834-2.557,6.551-9.828,5.937-15.683
		C15.936-0.904,9.2,0.496,6.225,3.107C3.242,5.726,0.24,12.95,0.286,18.582z"/>
	<path fill="#ACFF85" d="M19.12,53.907c-3.589,1.948-11.451-1.006-14.061-4.027c-2.496-2.89-5.278-10.565-3.943-16.296
		c4.899-0.949,11.408,1.275,14.035,4.236C17.785,40.787,19.865,48.326,19.12,53.907z"/>
	<path fill="#FFF8AC" d="M91.692,27.177c0-2.344-4.484-8.003-7.851-11.921C77.986,6.612,65.972,0.681,52.09,0.681
		c-15.226,0-28.211,7.134-33.28,17.16c-3.598,3.514-7.171,7.472-7.171,9.336c0,1.465,3.403,5.268,6.911,8.798
		c4.869,10.308,18.043,17.698,33.541,17.698c14.355,0,26.715-6.343,32.33-15.47C87.699,34.199,91.692,28.958,91.692,27.177z"/>
	<ellipse fill="#FFFFFF" cx="46.753" cy="12.111" rx="9.034" ry="5.178"/>
	<ellipse fill="#FFFFFF" cx="32.072" cy="17.864" rx="4.301" ry="3.171"/>
	<ellipse fill="#FFFFFF" cx="41.658" cy="21.704" rx="2.313" ry="1.746"/>
</g>
</svg>
