<?xml version="1.0" encoding="utf-8"?>
<!-- Generator: Adobe Illustrator 16.0.3, SVG Export Plug-In . SVG Version: 6.00 Build 0)  -->
<!DOCTYPE svg PUBLIC "-//W3C//DTD SVG 1.1//EN" "http://www.w3.org/Graphics/SVG/1.1/DTD/svg11.dtd">
<svg version="1.1" id="Layer_1" xmlns="http://www.w3.org/2000/svg" xmlns:xlink="http://www.w3.org/1999/xlink" x="0px" y="0px"
	 width="83.286px" height="84.475px" viewBox="8.843 0.607 83.286 84.475" enable-background="new 8.843 0.607 83.286 84.475"
	 xml:space="preserve">
<g>
	<path fill="#F6FF99" d="M66.09,66.639c-24.895,2.745-42.902-15.883-38.804-40.591C28.772,17.09,32.1,6.816,35.295,0.607
		c-4.136,1.292-8.012,3.164-11.544,5.514C14.594,14.417,8.843,26.403,8.843,39.732c0,25.046,20.304,45.35,45.349,45.35
		c9.267,0,17.879-2.786,25.058-7.558c5.927-5.363,10.437-12.267,12.88-20.084C85.917,60.635,74.411,65.72,66.09,66.639z"/>
	<path fill="#FF5680" d="M27.285,26.049c-4.098,24.708,13.91,43.336,38.804,40.591c8.321-0.919,19.827-6.004,26.038-9.198
		C87.85,58.778,83.303,59.5,78.584,59.5c-25.045,0-45.349-20.304-45.349-45.35c0-4.718,0.721-9.268,2.059-13.543
		C32.099,6.816,28.772,17.09,27.285,26.049z"/>
	<path fill="#FF7595" d="M69.092,64.193c5.504-0.606,12.393-3.037,18.229-5.538c-2.826,0.554-5.746,0.845-8.736,0.845
		c-25.045,0-45.349-20.304-45.349-45.35c0-1.129,0.044-2.248,0.125-3.356c-1.29,4.194-2.382,8.644-3.073,12.811
		C26.189,48.311,44.197,66.937,69.092,64.193z"/>
	
		<ellipse transform="matrix(0.9414 -0.3373 0.3373 0.9414 -10.1345 13.5316)" fill="#FFF4EF" enable-background="new    " cx="33.879" cy="35.934" rx="1.911" ry="1.292"/>
	
		<ellipse transform="matrix(0.9855 -0.1697 0.1697 0.9855 -4.6238 6.0201)" fill="#FFF4EF" enable-background="new    " cx="32.896" cy="30.052" rx="1.91" ry="1.292"/>
	
		<ellipse transform="matrix(0.8335 -0.5525 0.5525 0.8335 -16.5678 27.4813)" fill="#FFF4EF" enable-background="new    " cx="37.32" cy="41.234" rx="1.909" ry="1.293"/>
	
		<ellipse transform="matrix(0.7859 -0.6184 0.6184 0.7859 -21.0639 33.5947)" fill="#FFF4EF" enable-background="new    " cx="37.979" cy="47.214" rx="1.911" ry="1.292"/>
	
		<ellipse transform="matrix(0.6646 -0.7472 0.7472 0.6646 -22.4237 49.1687)" fill="#FFF4EF" enable-background="new    " cx="43.559" cy="49.563" rx="1.91" ry="1.292"/>
	
		<ellipse transform="matrix(0.6204 -0.7842 0.7842 0.6204 -26.1386 56.3588)" fill="#FFF4EF" enable-background="new    " cx="45.156" cy="55.184" rx="1.911" ry="1.292"/>
	
		<ellipse transform="matrix(0.5414 -0.8408 0.8408 0.5414 -22.8843 68.5274)" fill="#FFF4EF" enable-background="new    " cx="51.376" cy="55.241" rx="1.91" ry="1.293"/>
	
		<ellipse transform="matrix(0.24 -0.9708 0.9708 0.24 -15.9482 99.5442)" fill="#FFF4EF" enable-background="new    " cx="55.602" cy="59.958" rx="1.91" ry="1.291"/>
	
		<ellipse transform="matrix(0.214 -0.9768 0.9768 0.214 -10.6746 108.4747)" fill="#FFF4EF" enable-background="new    " cx="62.067" cy="60.87" rx="1.91" ry="1.292"/>
	
		<ellipse transform="matrix(0.0368 -0.9993 0.9993 0.0368 5.1034 128.1312)" fill="#FFF4EF" enable-background="new    " cx="69.02" cy="61.418" rx="1.911" ry="1.291"/>
</g>
</svg>
