<?xml version="1.0" encoding="utf-8"?>
<!-- Generator: Adobe Illustrator 16.0.3, SVG Export Plug-In . SVG Version: 6.00 Build 0)  -->
<!DOCTYPE svg PUBLIC "-//W3C//DTD SVG 1.1//EN" "http://www.w3.org/Graphics/SVG/1.1/DTD/svg11.dtd">
<svg version="1.1" id="Layer_1" xmlns="http://www.w3.org/2000/svg" xmlns:xlink="http://www.w3.org/1999/xlink" x="0px" y="0px"
	 width="79.125px" height="79.126px" viewBox="0 0 79.125 79.126" enable-background="new 0 0 79.125 79.126" xml:space="preserve">
<g>
	<circle fill="#FFB385" cx="39.563" cy="39.563" r="39.563"/>
	<circle fill="#FFFADB" cx="39.563" cy="39.563" r="34.75"/>
	<path fill="#FFD6B0" d="M31.899,66.944c-0.743-2.273,6.07-24.294,7.634-24.294c1.536,0,8.847,22.571,7.722,24.648
		C45.818,69.951,32.87,69.924,31.899,66.944z"/>
	<path fill="#FFD6B0" d="M53.507,64.344c-2.133-1.083-12.886-21.471-11.781-22.576c1.087-1.087,22.216,9.705,22.889,11.968
		C65.475,56.627,56.299,65.763,53.507,64.344z"/>
	<path fill="#FFD6B0" d="M66.945,47.227c-2.273,0.742-24.294-6.07-24.294-7.635c0-1.536,22.57-8.848,24.647-7.722
		C69.952,33.307,69.924,46.255,66.945,47.227z"/>
	<path fill="#FFD6B0" d="M64.344,25.619c-1.082,2.134-21.47,12.887-22.576,11.78c-1.087-1.088,9.706-22.216,11.969-22.889
		C56.628,13.651,65.765,22.826,64.344,25.619z"/>
	<path fill="#FFD6B0" d="M47.228,12.18c0.742,2.273-6.07,24.293-7.635,24.293c-1.537,0-8.847-22.569-7.722-24.647
		C33.309,9.173,46.256,9.201,47.228,12.18z"/>
	<path fill="#FFD6B0" d="M25.619,14.78c2.135,1.083,12.887,21.472,11.78,22.577c-1.087,1.087-22.215-9.706-22.889-11.968
		C13.651,22.496,22.827,13.361,25.619,14.78z"/>
	<path fill="#FFD6B0" d="M12.18,31.898c2.274-0.744,24.295,6.068,24.293,7.634c0.002,1.537-22.569,8.847-24.647,7.723
		C9.173,45.816,9.202,32.869,12.18,31.898z"/>
	<path fill="#FFD6B0" d="M14.78,53.506c1.085-2.134,21.472-12.887,22.576-11.78c1.089,1.086-9.703,22.214-11.968,22.89
		C22.497,65.474,13.363,56.298,14.78,53.506z"/>
</g>
</svg>
