<?xml version="1.0" encoding="utf-8"?>
<!-- Generator: Adobe Illustrator 16.0.3, SVG Export Plug-In . SVG Version: 6.00 Build 0)  -->
<!DOCTYPE svg PUBLIC "-//W3C//DTD SVG 1.1//EN" "http://www.w3.org/Graphics/SVG/1.1/DTD/svg11.dtd">
<svg version="1.1" id="Layer_1" xmlns="http://www.w3.org/2000/svg" xmlns:xlink="http://www.w3.org/1999/xlink" x="0px" y="0px"
	 width="211.323px" height="274.346px" viewBox="0 0 211.323 274.346" enable-background="new 0 0 211.323 274.346"
	 xml:space="preserve">
<g>
	<path fill="#1F1F1F" d="M76.253,221.714c-5.608,4.704-15.579,25.66-16.854,34.631c-1.251,8.834,6.635,16.503,12.611,17.269
		c5.491,0.7,16.879-3.134,18.952-11.271c2.285-8.973,5.483-32.02,1.439-37.555c-2.231-3.054-3.733-4.578-6.408-4.979
		C83.615,219.451,78.94,219.459,76.253,221.714z"/>
	<path fill="#1F1F1F" d="M128.498,222.263c5.221,5.131,13.511,26.807,14.074,35.85c0.553,8.906-7.913,15.932-13.931,16.223
		c-5.528,0.267-16.579-4.452-18.006-12.728c-1.572-9.124-2.946-32.353,1.521-37.552c2.465-2.868,4.083-4.269,6.78-4.459
		C121.337,219.428,125.997,219.804,128.498,222.263z"/>
	<path fill="#F2F2F2" d="M141.982,195.585c1.813,27.664-6.784,51.079-37.569,52.77c-30.313,1.665-42.324-19.748-44.138-47.413
		c-1.813-27.665-1.665-50.197,37.57-52.77C134.781,145.75,140.168,167.92,141.982,195.585z"/>
	<path fill="#1F1F1F" d="M55.441,166.127c-3.604,6.37-5.599,29.491-3.647,38.341c1.924,8.713,10.394,13.847,15.593,12.064
		c5.236-1.796,9.583-7.793,8.674-16.141c-1.004-9.204,1.31-33.278-4.417-37.045c-3.159-2.079-5.1-2.979-7.747-2.417
		C61.544,161.43,57.169,163.075,55.441,166.127z"/>
	<path fill="#1F1F1F" d="M141.736,154.236c6.498,3.367,20.802,21.642,24.002,30.12c3.149,8.348-1.141,17.276-6.47,18.623
		c-5.365,1.356-12.283-1.292-16.082-8.78c-4.188-8.257-19.279-27.156-16.54-33.438c1.51-3.468,2.643-5.282,5.168-6.258
		C134.058,153.635,138.621,152.622,141.736,154.236z"/>
	<path fill="#1F1F1F" d="M64.153,69.908c0,0,13.153-24.788-0.483-39.201c-11.618-12.28-32.318-18.913-47.971-5.921
		C-0.412,38.159-6.098,66.056,8.1,74.849c15.824,9.801,45.212,5.644,49.147,6.036"/>
	<path fill="#1F1F1F" d="M145.33,76.887c0,0-8.073-26.875,8.111-38.355c13.788-9.781,35.383-12.254,48.204,3.539
		c13.197,16.255,13.338,44.726-2.3,50.584c-17.432,6.531-45.446-3.272-49.382-3.655"/>
	<path fill="#F2F2F2" d="M189.489,116.483c-4.914,49.955-45.978,66.362-94.173,61.621c-48.198-4.741-85.276-28.834-80.363-78.79
		c4.256-43.266,45.977-66.362,94.173-61.621C157.322,42.434,192.985,80.939,189.489,116.483z"/>
	<path fill="#1F1F1F" d="M51.588,80.692c6.377-6.176,22.126-10.941,29.301-5.712c5.883,4.291,3.663,18.537-0.902,26.579
		c-4.625,8.149-12.181,15.4-18.219,16.752c-5.743,1.285-18.337,0.21-21.528-9.522C37.074,99.132,45.874,86.227,51.588,80.692z"/>
	
		<ellipse transform="matrix(0.9952 0.0978 -0.0978 0.9952 8.9132 -6.3429)" fill="#F2F2F2" cx="69.179" cy="87.778" rx="3.896" ry="5.817"/>
	<path fill="#1F1F1F" d="M155.585,90.922c-5.052-7.301-19.568-15.043-27.625-11.312c-6.607,3.062-7.204,17.466-4.295,26.244
		c2.949,8.895,8.947,17.479,14.606,19.981c5.383,2.379,17.945,3.779,22.971-5.146C166.23,111.836,160.113,97.462,155.585,90.922z"/>
	
		<ellipse transform="matrix(-0.9952 -0.0978 0.0978 -0.9952 264.0118 201.8263)" fill="#F2F2F2" cx="136.951" cy="94.445" rx="3.896" ry="5.817"/>
	<g>
		<path fill="#1F1F1F" d="M100.095,133.908c5.867,0.416,16.064-5.75,14.709-8.251c-3.136-5.783-24.865-9.295-28.355-2.79
			C85.174,125.248,94.856,133.538,100.095,133.908z"/>
	</g>
	<path fill="#FFF6A4" d="M91.501,38.53L95.326,0l10.958,16.623l12.344-14.838l5.067,18.716l19.467-8.938l-16.362,38.264
		C126.799,49.827,102.051,52.807,91.501,38.53z"/>
	<path fill="#1F1F1F" d="M105.588,155.847c-0.277,2.82-4.785,6.693-8.599,6.319c-3.814-0.376-7.48-5.053-7.204-7.873
		c0.277-2.82,4.394-2.713,8.207-2.338C101.807,152.332,105.867,153.028,105.588,155.847z"/>
	
		<rect x="106.731" y="27.058" transform="matrix(0.5214 0.8533 -0.8533 0.5214 80.8319 -79.9989)" fill="#FF1B65" width="10.002" height="10.002"/>
</g>
</svg>
