<?xml version="1.0" encoding="utf-8"?>
<!-- Generator: Adobe Illustrator 16.0.3, SVG Export Plug-In . SVG Version: 6.00 Build 0)  -->
<!DOCTYPE svg PUBLIC "-//W3C//DTD SVG 1.1//EN" "http://www.w3.org/Graphics/SVG/1.1/DTD/svg11.dtd">
<svg version="1.1" id="Layer_1" xmlns="http://www.w3.org/2000/svg" xmlns:xlink="http://www.w3.org/1999/xlink" x="0px" y="0px"
	 width="528px" height="385px" viewBox="0 0 528 385" enable-background="new 0 0 528 385" xml:space="preserve">
<g>
	
		<image overflow="visible" opacity="0.43" width="566" height="419" xlink:href="36988B57.png"  transform="matrix(1 0 0 1 -20 -21)">
	</image>
	<g>
		<image overflow="visible" opacity="0.6" width="495" height="349" xlink:href="36988B55.png"  transform="matrix(1 0 0 1 15 14)">
		</image>
		<g>
			<path fill="#FFFFFF" d="M456.487,150.288c-0.52-3.553-3.571-6.284-7.269-6.284c-2.906,0-5.411,1.69-6.605,4.137l-35.284,7.512
				l0.767-15.019l-5.519,16.031l-42.56,9.061c-1.961-5.536-4.389-10.853-7.257-15.89L353.5,160l-17.001-31.44
				c-4.923-4.904-10.358-9.292-16.217-13.082L322,127.5l-31.34-24.888c-3.262-0.815-6.587-1.466-9.966-1.948l7.806,11.002
				l-17.173-11.561l-11.377-73.14l-10.691,74.017c-42.984,6.53-75.184,37.108-80.734,78.831c-0.655,4.927,2.807,9.452,7.735,10.108
				c4.937,0.649,9.452-2.808,10.107-7.735c2.07-15.555,8.833-29.184,18.992-39.862c0.534-3.202,0.603-5.418-0.359-4.991
				c-3,1.333-11.333,8-11.333,8C203.667,115,243,111.667,243,111.667l-16.333,7l14.803,2.382c7.88-2.199,16.332-3.383,25.197-3.383
				c44.664,0,81.001,36.338,81.001,81.001s-36.337,81-81.001,81c-40.483,0-75.005-30.212-80.298-70.276
				c-0.652-4.929-5.175-8.395-10.102-7.744c-4.928,0.651-8.395,5.174-7.744,10.102c1.72,13.017,5.979,25.17,12.211,36.016
				l-36.27,18.649l-16.327,3.12l10.227-8.128l-44.551,24.12l4.161-0.234l41.053-16.082L27.521,326.547l77.343-36.625l-38.633,60.846
				l56.31-69.216l61.144-28.954c15.162,23.196,39.747,39.534,67.902,43.891L235,282c0,0,31,13.5,54.5,4.5
				c0,0,0.091,3.736-0.852,8.704c10.119-2.303,19.643-6.177,28.327-11.323L374.5,340.5l-45.063-65.34
				c22.105-18.171,36.23-45.712,36.23-76.493c0-10.079-1.52-19.81-4.333-28.979l9.332,1.313l71.522-21.806
				c-0.21,0.684-0.324,1.41-0.324,2.163c0,1.17,0.28,2.272,0.767,3.254L404,166.667l54-8.167l40-21.167L456.487,150.288z"/>
		</g>
	</g>
</g>
</svg>
