<?xml version="1.0" encoding="utf-8"?>
<!-- Generator: Adobe Illustrator 16.0.3, SVG Export Plug-In . SVG Version: 6.00 Build 0)  -->
<!DOCTYPE svg PUBLIC "-//W3C//DTD SVG 1.1//EN" "http://www.w3.org/Graphics/SVG/1.1/DTD/svg11.dtd">
<svg version="1.1" id="Layer_1" xmlns="http://www.w3.org/2000/svg" xmlns:xlink="http://www.w3.org/1999/xlink" x="0px" y="0px"
	 width="73.588px" height="73.588px" viewBox="-1.779 -0.552 73.588 73.588" enable-background="new -1.779 -0.552 73.588 73.588"
	 xml:space="preserve">
<g>
	<circle fill="#E385FF" cx="35.015" cy="36.242" r="36.794"/>
	<path fill="#FFFFFF" d="M35.015,5.164c17.198,0,31.144,13.944,31.144,31.148c0,17.203-13.945,31.148-31.144,31.148
		c-17.203,0-31.146-13.945-31.146-31.148C3.869,19.108,17.812,5.164,35.015,5.164z"/>
	<path fill="#FFECB0" d="M35.015,10.156c14.442,0,26.151,11.709,26.151,26.156c0,14.447-11.709,26.155-26.151,26.155
		c-14.446,0-26.154-11.709-26.154-26.156C8.861,21.864,20.569,10.156,35.015,10.156z"/>
	<ellipse fill="#FFFFFF" cx="33.934" cy="22.326" rx="3.879" ry="3.768"/>
	<ellipse fill="#FFA74E" cx="33.934" cy="22.326" rx="2.386" ry="2.316"/>
	<ellipse fill="#FFFFFF" cx="24.805" cy="21.943" rx="3.88" ry="3.767"/>
	<ellipse fill="#FFA74E" cx="24.805" cy="21.944" rx="2.384" ry="2.314"/>
	<ellipse fill="#FFFFFF" cx="42.625" cy="20.268" rx="3.881" ry="3.77"/>
	<ellipse fill="#FFA74E" cx="42.625" cy="20.269" rx="2.386" ry="2.316"/>
	<ellipse fill="#FFFFFF" cx="53.325" cy="34.508" rx="3.881" ry="3.77"/>
	<ellipse fill="#FFA74E" cx="53.325" cy="34.508" rx="2.385" ry="2.315"/>
	<path fill="#FFFFFF" d="M45.808,47.077c2.146,0,3.882,1.688,3.882,3.77c0,2.08-1.736,3.768-3.882,3.768
		c-2.142,0-3.879-1.688-3.879-3.768C41.929,48.765,43.667,47.077,45.808,47.077z"/>
	<ellipse fill="#FFA74E" cx="45.808" cy="50.845" rx="2.386" ry="2.315"/>
	<ellipse fill="#FFFFFF" cx="27.599" cy="52.567" rx="3.88" ry="3.77"/>
	<ellipse fill="#FFA74E" cx="27.599" cy="52.566" rx="2.384" ry="2.315"/>
	<ellipse fill="#FFFFFF" cx="16.889" cy="38.083" rx="3.88" ry="3.769"/>
	<ellipse fill="#FFA74E" cx="16.889" cy="38.083" rx="2.384" ry="2.316"/>
	<ellipse fill="#FFFFFF" cx="21.58" cy="30.482" rx="3.88" ry="3.769"/>
	<ellipse fill="#FFA74E" cx="21.58" cy="30.484" rx="2.383" ry="2.316"/>
	<ellipse fill="#FFFFFF" cx="22.175" cy="45.621" rx="3.881" ry="3.769"/>
	<ellipse fill="#FFA74E" cx="22.175" cy="45.622" rx="2.384" ry="2.316"/>
	<ellipse fill="#FFFFFF" cx="36.563" cy="51.228" rx="3.878" ry="3.769"/>
	<path fill="#FFA74E" d="M36.563,48.913c1.313,0,2.382,1.039,2.382,2.314c0,1.28-1.067,2.315-2.382,2.315
		c-1.316,0-2.386-1.035-2.386-2.315C34.177,49.952,35.247,48.913,36.563,48.913z"/>
	<ellipse fill="#FFFFFF" cx="49.936" cy="43.062" rx="3.877" ry="3.769"/>
	<path fill="#FFA74E" d="M49.936,40.747c1.316,0,2.383,1.039,2.383,2.314c0,1.28-1.066,2.315-2.383,2.315
		c-1.318,0-2.385-1.035-2.385-2.315C47.551,41.786,48.618,40.747,49.936,40.747z"/>
	<ellipse fill="#FFFFFF" cx="47.485" cy="27.562" rx="3.881" ry="3.769"/>
	<ellipse fill="#FFA74E" cx="47.485" cy="27.562" rx="2.383" ry="2.314"/>
	<ellipse fill="#FFFFFF" cx="32.2" cy="32.259" rx="4.388" ry="4.261"/>
	<ellipse fill="#FFA74E" cx="32.198" cy="32.26" rx="2.696" ry="2.62"/>
	<ellipse fill="#FFFFFF" cx="41.75" cy="36.562" rx="4.386" ry="4.26"/>
	<ellipse fill="#FFA74E" cx="41.749" cy="36.562" rx="2.694" ry="2.62"/>
	<ellipse fill="#FFFFFF" cx="32.75" cy="42.181" rx="4.388" ry="4.263"/>
	<ellipse fill="#FFA74E" cx="32.75" cy="42.18" rx="2.696" ry="2.619"/>
</g>
</svg>
