<?xml version="1.0" encoding="utf-8"?>
<!-- Generator: Adobe Illustrator 16.0.3, SVG Export Plug-In . SVG Version: 6.00 Build 0)  -->
<!DOCTYPE svg PUBLIC "-//W3C//DTD SVG 1.1//EN" "http://www.w3.org/Graphics/SVG/1.1/DTD/svg11.dtd">
<svg version="1.1" id="Layer_1" xmlns="http://www.w3.org/2000/svg" xmlns:xlink="http://www.w3.org/1999/xlink" x="0px" y="0px"
	 width="48.074px" height="60.468px" viewBox="-0.273 2.73 48.074 60.468" enable-background="new -0.273 2.73 48.074 60.468"
	 xml:space="preserve">
<g>
	<g>
		<path fill="#E357BD" d="M19.66,36.846c0,4.988-4.044,9.032-9.035,9.032c-4.989,0-9.033-4.044-9.033-9.032
			c0-4.991,4.043-9.035,9.033-9.035C15.616,27.811,19.66,31.855,19.66,36.846z"/>
		<circle fill="#E357BD" cx="16.704" cy="47.791" r="9.034"/>
		<circle fill="#E357BD" cx="30.254" cy="47.909" r="9.034"/>
		<circle fill="#E357BD" cx="36.92" cy="36.776" r="9.035"/>
		<circle fill="#E357BD" cx="23.965" cy="36.846" r="12.028"/>
		<circle fill="#E357BD" cx="16.879" cy="24.909" r="9.033"/>
		<path fill="#E357BD" d="M39.437,24.772c0,4.989-4.044,9.033-9.034,9.033c-4.989,0-9.033-4.044-9.033-9.033
			c0-4.992,4.044-9.035,9.033-9.035C35.393,15.737,39.437,19.78,39.437,24.772z"/>
	</g>
	<path fill="#D3FF75" d="M40.205,14.539c-0.208-0.019-7.887-7.328-15.882-0.303c0,0-0.479-4.915,8.199-11.197
		c0,0-11.228-2.866-13.756,8.87c0,0-7.198-4.63-12.648,4.067c14.189-2.405,15.875,9.331,17.365,9.278
		C25.189,25.193,29.554,13.584,40.205,14.539z"/>
	<circle fill="#FF7DDA" cx="7.033" cy="26.549" r="7.307"/>
	<circle fill="#F8DEE3" cx="5.968" cy="25.567" r="3.63"/>
	<circle fill="#FF7DDA" cx="7.033" cy="44.964" r="7.307"/>
	<circle fill="#F8DEE3" cx="6.203" cy="43.744" r="3.63"/>
	<circle fill="#FF7DDA" cx="23.408" cy="55.891" r="7.307"/>
	<circle fill="#F8DEE3" cx="22.773" cy="54.568" r="3.63"/>
	<circle fill="#FF7DDA" cx="23.408" cy="36.775" r="7.307"/>
	<circle fill="#F8DEE3" cx="22.3" cy="35.869" r="3.629"/>
	<circle fill="#FF7DDA" cx="40.494" cy="26.432" r="7.307"/>
	<circle fill="#F8DEE3" cx="39.733" cy="25.261" r="3.629"/>
	<circle fill="#FF7DDA" cx="40.494" cy="45.346" r="7.307"/>
	<circle fill="#F8DEE3" cx="39.758" cy="44.199" r="3.629"/>
</g>
</svg>
