<?xml version="1.0" encoding="utf-8"?>
<!-- Generator: Adobe Illustrator 16.0.3, SVG Export Plug-In . SVG Version: 6.00 Build 0)  -->
<!DOCTYPE svg PUBLIC "-//W3C//DTD SVG 1.1//EN" "http://www.w3.org/Graphics/SVG/1.1/DTD/svg11.dtd">
<svg version="1.1" id="Layer_1" xmlns="http://www.w3.org/2000/svg" xmlns:xlink="http://www.w3.org/1999/xlink" x="0px" y="0px"
	 width="84.277px" height="80.282px" viewBox="7.448 27.846 84.277 80.282" enable-background="new 7.448 27.846 84.277 80.282"
	 xml:space="preserve">
<g>
	<path fill="#FFF389" d="M49.583,27.846c3.467,0,13.004,26.35,13.004,26.35s27.826,1.055,29.077,4.226
		c1.369,3.471-21.042,20.509-21.042,20.509s7.717,26.877,4.967,28.96c-2.972,2.255-26.007-13.674-26.007-13.674
		s-23.359,16.032-26.007,13.674c-2.239-1.993,4.966-28.96,4.966-28.96S6.232,61.893,7.5,58.421
		c1.293-3.534,29.078-4.226,29.078-4.226S46.899,27.846,49.583,27.846z"/>
	<polygon fill="#FFFEC4" points="49.848,33.495 60.257,58.006 86.337,60.34 66.35,77.473 72.486,103.219 49.7,89.458 
		27.139,102.919 32.221,77.685 12.984,60.038 38.689,57.999 	"/>
	<g>
		<path fill="#FFCC8D" d="M50.523,62.404c0,2.636,0,4.771-0.875,4.771c-0.873,0-0.873-2.136-0.873-4.771c0-2.635,0-4.77,0.873-4.77
			C50.523,57.634,50.523,59.769,50.523,62.404z"/>
		<path fill="#FFCC8D" d="M58.086,68.903c-2.465,0.933-4.462,1.688-4.771,0.871c-0.311-0.817,1.688-1.572,4.153-2.504
			c2.464-0.934,4.462-1.689,4.771-0.871C62.548,67.214,60.55,67.971,58.086,68.903z"/>
		<path fill="#FFCC8D" d="M41.731,67.663c2.503,0.827,4.53,1.499,4.256,2.328c-0.274,0.83-2.302,0.157-4.805-0.668
			c-2.501-0.829-4.53-1.499-4.255-2.329C37.203,66.164,39.23,66.835,41.731,67.663z"/>
		<path fill="#FFCC8D" d="M45.422,78.645c-1.47,2.188-2.661,3.962-3.388,3.474c-0.725-0.488,0.467-2.261,1.936-4.448
			c1.469-2.187,2.661-3.96,3.386-3.473C48.082,74.685,46.89,76.458,45.422,78.645z"/>
		<path fill="#FFCC8D" d="M55.816,77.429c1.696,2.016,3.071,3.651,2.404,4.213c-0.669,0.563-2.046-1.07-3.743-3.086
			c-1.696-2.017-3.072-3.65-2.403-4.212C52.742,73.781,54.118,75.415,55.816,77.429z"/>
	</g>
</g>
</svg>
