<?xml version="1.0" encoding="utf-8"?>
<!-- Generator: Adobe Illustrator 16.0.3, SVG Export Plug-In . SVG Version: 6.00 Build 0)  -->
<!DOCTYPE svg PUBLIC "-//W3C//DTD SVG 1.1//EN" "http://www.w3.org/Graphics/SVG/1.1/DTD/svg11.dtd">
<svg version="1.1" id="Layer_1" xmlns="http://www.w3.org/2000/svg" xmlns:xlink="http://www.w3.org/1999/xlink" x="0px" y="0px"
	 width="38.328px" height="19.721px" viewBox="0 0 38.328 19.721" enable-background="new 0 0 38.328 19.721" xml:space="preserve">
<g>
	<path fill="#BFBFBF" d="M0.14,7.629C-1.591,13.8,13.165,19.028,19.542,19.676c5.486,0.558,18.979-4.114,18.784-9.628
		c-0.173-4.935-12.125-9.057-16.989-9.897C16.092-0.755,1.578,2.505,0.14,7.629z"/>
	
		<ellipse transform="matrix(0.9881 -0.1538 0.1538 0.9881 -0.7711 1.8226)" fill="#FFFFFF" cx="11.391" cy="5.894" rx="4.669" ry="2.253"/>
	
		<ellipse transform="matrix(0.9881 -0.1539 0.1539 0.9881 -1.1096 3.0467)" fill="#FFFFFF" cx="19.124" cy="8.69" rx="3.525" ry="1.7"/>
	
		<ellipse transform="matrix(0.9881 -0.1541 0.1541 0.9881 -0.5065 3.0185)" fill="#FFFFFF" cx="19.22" cy="4.777" rx="2.174" ry="1.049"/>
</g>
</svg>
