<?xml version="1.0" encoding="utf-8"?>
<!-- Generator: Adobe Illustrator 16.0.3, SVG Export Plug-In . SVG Version: 6.00 Build 0)  -->
<!DOCTYPE svg PUBLIC "-//W3C//DTD SVG 1.1//EN" "http://www.w3.org/Graphics/SVG/1.1/DTD/svg11.dtd">
<svg version="1.1" id="Layer_1" xmlns="http://www.w3.org/2000/svg" xmlns:xlink="http://www.w3.org/1999/xlink" x="0px" y="0px"
	 width="42.174px" height="59.244px" viewBox="0.063 3.749 42.174 59.244" enable-background="new 0.063 3.749 42.174 59.244"
	 xml:space="preserve">
<g>
	<path fill="#F5FF89" d="M19.935,29.643c-3.535,3.226-5.974,2.714-5.974,2.714c0.226-1.411,2.625-4.148,2.625-4.148
		c-4.101,0.384-7.778-0.962-7.778-0.962c0.802-1.373,5.105-2.084,5.105-2.084c-3.121-0.302-6.192-2.578-6.192-2.578
		c1.507-1.79,4.128-1.404,4.128-1.404s-3.298-2.52-3.277-5.132c0,0,2.38-0.112,4.317,1.135c0,0-3.155-3.991-2.424-6.192
		c0,0,2.72,0.128,3.826,2.177c0,0-1.838-5.327-0.967-6.77c0,0,2.974,1.465,3.508,3.606c0,0-0.179-5.036,0.859-6.041
		c0,0,2.404,1.988,2.582,4.211c0,0,0.258-3.771,1.961-4.424c0,0,1.65,2.85,1.028,4.917c-0.001,0.001-0.002,0.003-0.002,0.003
		s1.929-3.595,3.947-3.688c0,0,0.371,3.298-0.843,5.135c0,0,1.71-2.053,4.096-2.039c0,0-0.193,3.577-1.693,5.494
		c0,0,2.164-1.629,4.033-1.845c0,0,0.154,3.307-3.35,5.637c0,0,3.083-0.529,4.604-0.472c0,0-1.359,3.376-4.629,4.548
		c0,0,3.223-0.596,4.498,0.364c0,0-1.64,2.05-4.23,2.301c0,0,2.314,1.546,3.093,2.72c0,0-2.916,1.03-5.481,0.258
		c0,0,3.541,3.084,3.823,4.472c0,0-5.194,0.537-7.423-2.288c0,0,0.483,5.353-1.156,5.874C22.549,35.14,18.915,32.557,19.935,29.643z
		"/>
	<path fill="#FFAC7D" d="M19.713,36.348c-2.738,2.68-4.634,2.248-4.634,2.248c0.17-1.176,2.029-3.45,2.029-3.45
		c-3.188,0.311-6.047-0.819-6.047-0.819c0.619-1.144,3.961-1.725,3.961-1.725c-2.426-0.26-4.818-2.164-4.818-2.164
		c1.165-1.492,3.204-1.163,3.204-1.163s-2.57-2.105-2.561-4.282c0,0,1.849-0.088,3.358,0.957c0,0-2.465-3.334-1.901-5.167
		c0,0,2.113,0.113,2.98,1.823c0,0-1.444-4.442-0.77-5.645c0,0,2.313,1.23,2.734,3.015c0,0-0.152-4.197,0.652-5.03
		c0,0,1.873,1.662,2.018,3.518c0,0,0.19-3.145,1.512-3.683c0,0,1.289,2.378,0.812,4.099c0,0.002-0.001,0.003-0.001,0.003
		s1.487-2.987,3.058-3.063c0,0,0.297,2.75-0.642,4.276c0,0,1.323-1.706,3.176-1.69c0,0-0.14,2.982-1.301,4.576
		c0,0,1.679-1.352,3.13-1.527c0,0,0.13,2.756-2.587,4.688c0,0,2.394-0.433,3.575-0.379c0,0-1.047,2.807-3.584,3.778
		c0,0,2.501-0.49,3.493,0.313c0,0-1.268,1.702-3.279,1.904c0,0,1.803,1.296,2.409,2.274c0,0-2.262,0.851-4.257,0.2
		c0,0,2.759,2.58,2.983,3.738c0,0-4.037,0.431-5.774-1.928c0,0,0.389,4.462-0.883,4.892C21.76,40.937,18.93,38.774,19.713,36.348z"
		/>
	<path fill="#FF7171" d="M41.94,29.699c2.613,10.443-12.759,27.844-16.899,31.933c-1.797,1.775-6.058,1.853-8.34,0
		c-4.735-3.841-18.35-20.547-16.459-32.169c1.963-12.068,15.815-3.956,20.983-3.956C25.958,25.508,39.124,18.44,41.94,29.699z"/>
	<path fill="#FFEEBC" d="M11.953,30.371c0,0.844-0.615,1.529-1.376,1.529l0,0c-0.76,0-1.376-0.686-1.376-1.529v-1.344
		c0-0.846,0.616-1.529,1.376-1.529l0,0c0.761,0,1.376,0.684,1.376,1.529V30.371z"/>
	<path fill="#FFEEBC" d="M8.501,37.564c0,0.842-0.616,1.527-1.377,1.527l0,0c-0.761,0-1.376-0.686-1.376-1.527v-1.348
		c0-0.844,0.615-1.527,1.376-1.527l0,0c0.761,0,1.377,0.684,1.377,1.527V37.564z"/>
	<path fill="#FFEEBC" d="M17.684,38.006c0,0.844-0.616,1.527-1.375,1.527l0,0c-0.761,0-1.377-0.684-1.377-1.527V36.66
		c0-0.844,0.616-1.527,1.377-1.527l0,0c0.759,0,1.375,0.684,1.375,1.527V38.006z"/>
	<path fill="#FFEEBC" d="M36.117,38.008c0,0.844-0.617,1.527-1.377,1.527l0,0c-0.761,0-1.377-0.684-1.377-1.527v-1.346
		c0-0.846,0.616-1.529,1.377-1.529l0,0c0.76,0,1.377,0.684,1.377,1.529V38.008z"/>
	<path fill="#FFEEBC" d="M22.654,30.66c0,0.844-0.616,1.527-1.376,1.527l0,0c-0.76,0-1.377-0.684-1.377-1.527v-1.348
		c0-0.842,0.617-1.525,1.377-1.525l0,0c0.76,0,1.376,0.684,1.376,1.525V30.66z"/>
	<path fill="#FFEEBC" d="M33.787,30.225c0,0.844-0.616,1.527-1.377,1.527l0,0c-0.76,0-1.376-0.684-1.376-1.527v-1.346
		c0-0.846,0.616-1.529,1.376-1.529l0,0c0.761,0,1.377,0.684,1.377,1.529V30.225z"/>
	<path fill="#FFEEBC" d="M27.232,38.006c0,0.844-0.616,1.529-1.375,1.529l0,0c-0.761,0-1.377-0.686-1.377-1.529V36.66
		c0-0.844,0.616-1.527,1.377-1.527l0,0c0.759,0,1.375,0.684,1.375,1.527V38.006z"/>
	<path fill="#FFEEBC" d="M13.817,46.473c0,0.846-0.616,1.529-1.376,1.529l0,0c-0.76,0-1.377-0.684-1.377-1.529v-1.346
		c0-0.844,0.617-1.527,1.377-1.527l0,0c0.76,0,1.376,0.684,1.376,1.527V46.473z"/>
	<path fill="#FFEEBC" d="M22.128,46.473c0,0.846-0.616,1.529-1.376,1.529l0,0c-0.761,0-1.377-0.684-1.377-1.529v-1.346
		c0-0.844,0.616-1.527,1.377-1.527l0,0c0.76,0,1.376,0.684,1.376,1.527V46.473z"/>
	<path fill="#FFEEBC" d="M18.12,55.502c0,0.844-0.615,1.527-1.375,1.527l0,0c-0.76,0-1.377-0.684-1.377-1.527v-1.346
		c0-0.844,0.617-1.527,1.377-1.527l0,0c0.76,0,1.375,0.684,1.375,1.527V55.502z"/>
	<path fill="#FFEEBC" d="M26.432,55.502c0,0.844-0.616,1.527-1.376,1.527l0,0c-0.761,0-1.377-0.684-1.377-1.527v-1.346
		c0-0.844,0.616-1.527,1.377-1.527l0,0c0.76,0,1.376,0.684,1.376,1.527V55.502z"/>
	<path fill="#FFEEBC" d="M30.647,46.473c0,0.846-0.616,1.529-1.377,1.529l0,0c-0.76,0-1.377-0.684-1.377-1.529v-1.346
		c0-0.844,0.617-1.527,1.377-1.527l0,0c0.761,0,1.377,0.684,1.377,1.527V46.473z"/>
</g>
</svg>
