<?xml version="1.0" encoding="utf-8"?>
<!-- Generator: Adobe Illustrator 16.0.3, SVG Export Plug-In . SVG Version: 6.00 Build 0)  -->
<!DOCTYPE svg PUBLIC "-//W3C//DTD SVG 1.1//EN" "http://www.w3.org/Graphics/SVG/1.1/DTD/svg11.dtd">
<svg version="1.1" id="Layer_1" xmlns="http://www.w3.org/2000/svg" xmlns:xlink="http://www.w3.org/1999/xlink" x="0px" y="0px"
	 width="225px" height="225px" viewBox="0 0 225 225" enable-background="new 0 0 225 225" xml:space="preserve">
<g>
	<circle fill="#FFF979" cx="111.8" cy="112.501" r="62.039"/>
	<path fill="#FFF979" d="M112.151,207.681c0.01,0,0.02,0,0.029,0v-0.001C112.154,207.681,112.108,207.681,112.151,207.681z"/>
	<path fill="#FFF979" d="M208.246,171.113c10.123-16.87,15.967-36.604,15.967-57.697c0-0.008,0-0.017,0-0.025l-19-0.012
		c0,0.013,0,0.025,0,0.037c0,17.646-4.834,34.155-13.234,48.276L208.246,171.113z"/>
	<path fill="#FFF979" d="M164.598,190.714c-14.957,10.077-33.385,15.961-52.385,15.967v18.227c0,0,0.271,0.002,0.34,0.002
		c22.814,0,44.059-6.798,61.814-18.469L164.598,190.714z"/>
	<path fill="#FFF979" d="M112.181,207.679L112.181,207.679C112.196,207.679,112.206,207.679,112.181,207.679z"/>
	<path fill="#FFF979" d="M194.142,66.487c-0.006-0.009-0.011-0.017-0.016-0.025v0.001C194.14,66.485,194.163,66.524,194.142,66.487z
		"/>
	<path fill="#FFF979" d="M113.933,0.698C94.261,0.366,74.257,5.187,55.99,15.732c-0.007,0.005-0.015,0.009-0.022,0.013l9.49,16.461
		c0.011-0.006,0.021-0.013,0.032-0.019c15.28-8.823,31.991-12.897,48.422-12.684L113.933,0.698z"/>
	<path fill="#FFF979" d="M154.098,29.063c16.206,7.915,30.311,20.577,40.028,37.398l15.785-9.114c-0.035-0.06-0.142-0.25-0.176-0.31
		c-11.407-19.758-27.917-34.756-46.902-44.298L154.098,29.063z"/>
	<path fill="#FFF979" d="M194.124,66.5h0.002C194.117,66.5,194.111,66.5,194.124,66.5z"/>
	<path fill="#FFF979" d="M30.868,66.079c-0.005,0.009-0.01,0.018-0.015,0.026h0.001C30.867,66.082,30.89,66.041,30.868,66.079z"/>
	<path fill="#FFF979" d="M13.998,168.435c9.548,17.202,23.725,32.116,41.991,42.662c0.008,0.004,0.016,0.009,0.022,0.014
		l9.511-16.449c-0.011-0.006-0.021-0.012-0.033-0.019c-15.281-8.821-27.165-21.257-35.195-35.593L13.998,168.435z"/>
	<path fill="#FFF979" d="M19.48,119.468c-1.248-17.992,2.665-36.537,12.373-53.363l-15.784-9.114
		c-0.035,0.06-0.146,0.246-0.181,0.307C4.481,77.056-0.253,98.853,0.977,120.066L19.48,119.468z"/>
	<path fill="#FFF979" d="M30.855,66.105L30.855,66.105C30.847,66.119,30.843,66.128,30.855,66.105z"/>
	<path fill="#FFF979" d="M48.529,226.009c0.011,0.006,0.023,0.012,0.035,0.018h0.001C48.533,226.009,48.478,225.98,48.529,226.009z"
		/>
	<path fill="#FFF979" d="M48.213,226.025v0.002C48.213,226.037,48.213,226.042,48.213,226.025z"/>
	<path fill="#FFF979" d="M241.702,112.281c0-0.014-0.002-0.025-0.001-0.039H241.7C241.701,112.279,241.704,112.34,241.702,112.281z"
		/>
	<path fill="#FFF979" d="M241.698,112.5h0.002C241.699,112.5,241.698,112.5,241.698,112.5z"/>
	<path fill="#FFF979" d="M46.626,1.852c-0.012,0.007-0.023,0.015-0.035,0.022l0.001,0C46.622,1.854,46.677,1.82,46.626,1.852z"/>
	<path fill="#FFF979" d="M46.687,1.5h-0.002C46.676,1.5,46.671,1.5,46.687,1.5z"/>
</g>
</svg>
