<?xml version="1.0" encoding="utf-8"?>
<!-- Generator: Adobe Illustrator 16.0.3, SVG Export Plug-In . SVG Version: 6.00 Build 0)  -->
<!DOCTYPE svg PUBLIC "-//W3C//DTD SVG 1.1//EN" "http://www.w3.org/Graphics/SVG/1.1/DTD/svg11.dtd">
<svg version="1.1" id="Layer_1" xmlns="http://www.w3.org/2000/svg" xmlns:xlink="http://www.w3.org/1999/xlink" x="0px" y="0px"
	 width="73.586px" height="73.586px" viewBox="0 0 73.586 73.586" enable-background="new 0 0 73.586 73.586" xml:space="preserve">
<g>
	<circle fill="#FFB36A" cx="36.793" cy="36.793" r="36.793"/>
	<circle fill="#FFFFFF" cx="36.793" cy="36.863" r="31.147"/>
	<circle fill="#E8E6D9" cx="36.793" cy="36.863" r="26.155"/>
	<ellipse fill="#FFFFFF" cx="35.712" cy="22.878" rx="3.88" ry="3.768"/>
	<ellipse fill="#FFFFFF" cx="26.583" cy="22.496" rx="3.88" ry="3.767"/>
	<ellipse fill="#FFFFFF" cx="44.407" cy="20.82" rx="3.881" ry="3.77"/>
	<ellipse fill="#FFFFFF" cx="55.105" cy="35.06" rx="3.879" ry="3.769"/>
	<ellipse fill="#FFFFFF" cx="47.589" cy="51.396" rx="3.882" ry="3.769"/>
	<ellipse fill="#FFFFFF" cx="29.377" cy="53.118" rx="3.88" ry="3.771"/>
	<ellipse fill="#FFFFFF" cx="18.667" cy="38.635" rx="3.88" ry="3.769"/>
	<ellipse fill="#FFFFFF" cx="23.357" cy="31.035" rx="3.88" ry="3.769"/>
	<ellipse fill="#FFFFFF" cx="23.953" cy="46.172" rx="3.881" ry="3.77"/>
	<ellipse fill="#FFFFFF" cx="38.341" cy="51.779" rx="3.882" ry="3.769"/>
	<ellipse fill="#FFFFFF" cx="51.716" cy="43.613" rx="3.878" ry="3.769"/>
	<ellipse fill="#FFFFFF" cx="49.266" cy="28.114" rx="3.881" ry="3.77"/>
	<ellipse fill="#FFFFFF" cx="33.978" cy="32.812" rx="4.388" ry="4.262"/>
	<ellipse fill="#FFFFFF" cx="43.531" cy="37.114" rx="4.386" ry="4.26"/>
	<ellipse fill="#FFFFFF" cx="34.527" cy="42.731" rx="4.388" ry="4.263"/>
	<g>
		<ellipse fill="#AEB87C" cx="35.712" cy="22.878" rx="2.386" ry="2.316"/>
		<ellipse fill="#AEB87C" cx="26.583" cy="22.496" rx="2.384" ry="2.314"/>
		<ellipse fill="#AEB87C" cx="44.407" cy="20.821" rx="2.384" ry="2.316"/>
		<ellipse fill="#AEB87C" cx="55.105" cy="35.06" rx="2.383" ry="2.316"/>
		<ellipse fill="#AEB87C" cx="47.589" cy="51.396" rx="2.386" ry="2.315"/>
		<ellipse fill="#AEB87C" cx="29.377" cy="53.117" rx="2.384" ry="2.316"/>
		<ellipse fill="#AEB87C" cx="18.667" cy="38.634" rx="2.384" ry="2.316"/>
		<ellipse fill="#AEB87C" cx="23.357" cy="31.036" rx="2.383" ry="2.316"/>
		<ellipse fill="#AEB87C" cx="23.953" cy="46.172" rx="2.384" ry="2.316"/>
		<ellipse fill="#AEB87C" cx="38.341" cy="51.779" rx="2.384" ry="2.315"/>
		<ellipse fill="#AEB87C" cx="51.716" cy="43.613" rx="2.384" ry="2.315"/>
		<ellipse fill="#AEB87C" cx="49.266" cy="28.114" rx="2.383" ry="2.314"/>
		<ellipse fill="#AEB87C" cx="33.976" cy="32.812" rx="2.696" ry="2.62"/>
		<ellipse fill="#AEB87C" cx="43.527" cy="37.114" rx="2.695" ry="2.619"/>
		<ellipse fill="#AEB87C" cx="34.527" cy="42.73" rx="2.696" ry="2.619"/>
	</g>
</g>
</svg>
